<?xml version="1.0" encoding="UTF-8" standalone="no"?>
<!-- Created with Inkscape (http://www.inkscape.org/) -->

<svg
   xmlns:dc="http://purl.org/dc/elements/1.1/"
   xmlns:cc="http://creativecommons.org/ns#"
   xmlns:rdf="http://www.w3.org/1999/02/22-rdf-syntax-ns#"
   xmlns:svg="http://www.w3.org/2000/svg"
   xmlns="http://www.w3.org/2000/svg"
   xmlns:sodipodi="http://sodipodi.sourceforge.net/DTD/sodipodi-0.dtd"
   xmlns:inkscape="http://www.inkscape.org/namespaces/inkscape"
   width="150"
   height="150"
   id="svg3315"
   version="1.1"
   inkscape:version="0.48.5 r10040"
   sodipodi:docname="Documento nuevo 1">
  <defs
     id="defs3317" />
  <sodipodi:namedview
     id="base"
     pagecolor="#ffffff"
     bordercolor="#666666"
     borderopacity="1.0"
     inkscape:pageopacity="0.0"
     inkscape:pageshadow="2"
     inkscape:zoom="1.4"
     inkscape:cx="-100.90906"
     inkscape:cy="45.636957"
     inkscape:document-units="px"
     inkscape:current-layer="layer1"
     showgrid="false"
     inkscape:window-width="1920"
     inkscape:window-height="1003"
     inkscape:window-x="0"
     inkscape:window-y="23"
     inkscape:window-maximized="1" />
  <metadata
     id="metadata3320">
    <rdf:RDF>
      <cc:Work
         rdf:about="">
        <dc:format>image/svg+xml</dc:format>
        <dc:type
           rdf:resource="http://purl.org/dc/dcmitype/StillImage" />
        <dc:title></dc:title>
      </cc:Work>
    </rdf:RDF>
  </metadata>
  <g
     inkscape:label="Capa 1"
     inkscape:groupmode="layer"
     id="layer1"
     transform="translate(0,-902.36218)">
    <g
       transform="translate(-73.21428,643.43361)"
       style="display:inline"
       id="g5371"
       inkscape:export-filename="/home/nerviozzo/grive/1 - HTML/2 - Javascript/images/tomate1.png"
       inkscape:export-xdpi="300"
       inkscape:export-ydpi="300">
      <path
         sodipodi:nodetypes="cczcccc"
         inkscape:connector-curvature="0"
         id="path5350"
         d="m 171.00644,368.28825 c 0.0839,6.7031 0.0465,10.57317 -5.9606,13.34915 -7.42377,3.63092 -7.81477,-1.67334 -9.20887,-3.30142 -1.39411,-1.62809 -4.92048,-11.14034 -10.19956,-18.11316 2.48513,-6.99859 3.91846,-9.23453 11.24568,-9.48554 7.39081,-0.44884 6.08022,0.76065 9.30197,7.52305 1.09709,2.25796 4.82532,7.51713 4.82138,10.02792 z"
         style="fill:#dcab95;fill-opacity:1;fill-rule:nonzero;stroke:none" />
      <path
         transform="matrix(1.0105263,0,0,1.912782,-1.3496241,-320.45168)"
         d="m 196.07142,338.57144 c 0,6.90356 -15.19034,12.5 -33.92857,12.5 -18.73823,0 -33.92857,-5.59644 -33.92857,-12.5 0,-6.90356 15.19034,-12.5 33.92857,-12.5 18.73823,0 33.92857,5.59644 33.92857,12.5 z"
         sodipodi:ry="12.5"
         sodipodi:rx="33.92857"
         sodipodi:cy="338.57144"
         sodipodi:cx="162.14285"
         id="path5348"
         style="fill:#ffffff;fill-opacity:1;fill-rule:nonzero;stroke:none"
         sodipodi:type="arc" />
      <g
         transform="matrix(-0.44296158,0.07118351,0.07118351,0.44296158,-34.533357,7.5406506)"
         id="g5293">
        <path
           sodipodi:nodetypes="csssssssssssssscsscssssssssssssscsscssssssssssssssssssssscssssssssscsssssssssscsccsssssssssssssssssssssscsssssscccsssssssss"
           inkscape:connector-curvature="0"
           id="path5305"
           d="m -258.42224,870.00464 c -0.46108,0 -4.69817,0.9 -9.41577,2 -4.7176,1.1 -9.66919,2 -11.00354,2 -2.7715,0 -4.48872,2.54344 -4.51291,6.68426 -0.042,7.18108 -9.31833,16.64356 -17.52227,17.87382 -10.60079,1.58968 -15.2155,-7.42621 -20.98023,-22.16763 -1.75374,-4.48464 -8.54459,-3.39083 -13.70481,0.11563 -4.03036,2.7387 -6.52274,7.48526 -9.94626,18.94194 -1.15901,3.87859 -2.55,7.61448 -3.09108,8.30198 -1.30951,1.66386 -5.20996,1.59226 -6.63246,-0.12175 -0.62615,-0.75447 -3.20766,-1.60498 -5.73668,-1.89004 -6.03632,-0.68038 -9.77741,-3.50049 -10.19016,-7.68155 -0.24232,-2.45458 0.65206,-4.69385 3.66967,-9.1878 3.54005,-5.27197 3.88636,-6.30388 3.07041,-9.14892 -0.50582,-1.76371 -0.91968,-6.48849 -0.91968,-10.49952 l 0,-7.29278 -9.43977,-9.02448 c -6.46687,-6.18237 -11.85929,-12.62712 -17.1224,-20.46382 -4.63386,-6.89976 -8.32852,-11.42428 -9.31023,-11.40139 -0.89518,0.0209 -2.86082,1.82087 -4.3681,4 -4.27587,6.18181 -9.15656,5.14515 -10.67248,-2.26684 -0.71262,-3.48435 -0.86515,-3.55385 -12.82605,-5.84476 -3.43146,-0.65724 -6.73112,-1.78792 -7.33257,-2.51263 -1.52484,-1.83731 -0.80231,-4.49654 1.5716,-5.78419 6.79373,-3.68505 6.67335,-3.54395 5.0278,-5.8933 -3.35921,-4.79595 -0.91492,-7.73623 6.43121,-7.73623 3.47955,0 4.23737,-0.38632 5.07389,-2.58652 0.88833,-2.33651 1.34878,-2.52479 4.76349,-1.94788 3.60851,0.60965 3.90794,0.44337 6.59666,-3.6633 1.54911,-2.36606 3.6568,-7.58723 4.68375,-11.6026 3.55795,-13.91144 12.84966,-28.07148 31.36475,-47.79807 10.39467,-11.07483 10.48201,-11.20871 8.28196,-12.69492 l -2.22351,-1.50205 4.56309,-4.40641 c 2.50969,-2.42353 8.23187,-6.18207 12.71593,-8.35233 4.48407,-2.17026 8.16818,-4.2497 8.18692,-4.621 0.0187,-0.37129 -1.87844,-1.73007 -4.21594,-3.0195 -2.3375,-1.28944 -4.25,-3.01066 -4.25,-3.82493 0,-1.22836 2.12876,-1.48049 12.5,-1.48049 6.875,0 13.0625,-0.36406 13.75,-0.80902 0.6875,-0.44496 1.25,-1.6498 1.25,-2.67742 0,-2.83443 4.72351,-6.01356 8.93486,-6.01356 4.06714,0 6.06514,1.422 6.06514,4.31663 0,1.52256 0.46262,1.77673 2.25,1.23622 6.25908,-1.89279 10.23447,-1.77999 12.15754,0.34499 1.51193,1.67066 3.07953,2.10216 7.63698,2.10216 3.154,0 9.3213,0.6804 13.70512,1.51199 26.9359,5.10965 48.50122,18.95975 63.36376,40.69468 2.77691,4.06094 5.12567,6.24908 8.14444,7.58749 2.33319,1.03444 4.85976,2.62894 5.6146,3.54332 0.75485,0.91439 2.55485,1.66692 4,1.67229 4.24282,0.0158 12.05792,4.31803 20.54835,11.31199 6.84606,5.63941 8.72652,6.66664 13.85912,7.57073 4.80303,0.84603 6.48152,0.76512 8.77955,-0.42324 5.8238,-3.0116 9.94054,-0.61709 9.94054,5.78194 0,3.27202 0.33568,3.70148 3.75,4.79769 8.26193,2.65258 9.94791,8.44032 3.45505,11.86066 l -2.29495,1.20894 2.10166,3.40054 c 1.66698,2.69724 1.87713,3.82007 1.01608,5.42896 -1.53765,2.87312 -4.75333,3.36168 -10.52784,1.5995 -10.58934,-3.23151 -16.46275,-1.73234 -19.63256,5.01115 -2.62975,5.59455 -5.53662,7.23526 -9.73659,5.49557 -2.94081,-1.21812 -5.85758,-6.0693 -4.73818,-7.88054 1.08352,-1.75316 -1.85001,-2.91341 -9.10925,-3.60282 -8.18452,-0.77728 -7.1322,-1.89975 -9.30867,9.92916 -1.5869,8.62468 -3.69442,14.99396 -7.68413,23.22269 l -3.50193,7.22269 3.07579,3.88351 c 4.06514,5.13266 10.13552,17.91031 10.13552,21.33445 0,2.14488 1.26983,3.69688 6.00755,7.34247 7.57647,5.82996 9.42327,9.20879 8.64144,15.81009 -0.66732,5.63445 -2.88112,8.6841 -6.30398,8.6841 -1.41779,0 -2.34501,0.5931 -2.34501,1.5 0,2.32319 -3.72838,5.5 -6.45492,5.5 -1.96993,0 -3.85315,-1.97207 -9.53245,-9.98218 -7.59032,-10.70543 -8.38921,-11.39027 -14.51263,-12.44082 -7.65796,-1.31381 -17.03085,-3.81956 -21.74848,-5.81425 l -4.74849,-2.00773 -6.00151,2.24441 c -3.30084,1.23443 -5.98703,2.75205 -5.96933,3.3725 4.82897,14.70532 -16.7569,1.75 -7.11642,1.62807 z m -37.9356,21.75 c 6.21482,-3.17519 7.75068,-6.80412 8.87782,-20.97648 0.85118,-10.70253 1.2476,-12.29952 4.53991,-18.28914 1.98401,-3.60947 4.3284,-7.66322 5.20975,-9.00833 1.55011,-2.36577 1.5097,-2.48094 -1.23694,-3.52521 -6.72819,-2.55805 -17.51162,4.38242 -21.88808,14.08769 -0.98251,2.17881 -2.39304,3.96147 -3.1345,3.96147 -1.86601,0 -1.69941,-1.22347 0.89333,-6.5601 2.20514,-4.53884 2.21014,-4.63651 0.30887,-6.02675 -2.95844,-2.16327 -5.84376,-1.70761 -10.48736,1.6562 -7.36521,5.33532 -10.7511,21.7958 -8.65182,32.98592 1.28329,6.84052 11.8352,13.94183 18.62696,13.94394 1.39596,4.4e-4 4.51989,-1.01171 6.94206,-2.24921 z m -12.56422,-17.10843 c -0.94796,-2.47034 -0.0293,-5.09235 1.91536,-5.46686 1.49394,-0.2877 1.75274,0.21851 1.48852,2.91151 -0.34267,3.4925 -2.44005,5.06704 -3.40388,2.55535 z m -57.41595,-73.64157 c 0,-0.55 -0.47656,-1 -1.05902,-1 -0.58246,0 -0.7809,0.45 -0.44098,1 0.33992,0.55 0.81648,1 1.05902,1 0.24254,0 0.44098,-0.45 0.44098,-1 z m 76.72957,-6.25 c 6.12198,-6.19955 10.20624,-13.17373 10.24847,-17.5 0.0275,-2.81673 -0.94261,-2.83024 -4.59318,-0.0639 -1.58667,1.20235 -3.03732,2.29231 -3.22366,2.42214 -0.18634,0.12983 -0.77241,2.16588 -1.30237,4.52456 -1.18666,5.28144 -2.43351,6.86723 -5.39949,6.86723 -3.59612,0 -5.1524,0.9088 -8.0405,4.69529 -3.03486,3.97891 -2.28035,5.26215 3.11005,5.2894 2.40026,0.0121 4.30981,-1.28185 9.20068,-6.23469 z m -97.52182,-12.5 c 1.77108,-2.04214 2.99396,-7.56078 2.15807,-9.73906 -0.73002,-1.90242 -3.74861,-1.95955 -5.29177,-0.10017 -1.45447,1.75253 -2.525,7.97168 -1.72919,10.04554 0.78668,2.05006 2.98696,1.95672 4.86289,-0.20631 z m 13.87414,-23.90952 c 8.2549,-7.87384 10.60011,-16.34048 4.52622,-16.34048 -3.18776,0 -7.99349,4.0951 -11.17336,9.52113 -7.5678,12.91348 -3.7973,16.78166 6.64714,6.81935 z"
           style="fill:#a49f9f" />
        <path
           sodipodi:nodetypes="csssssssssssscssssssssssscssssssssssssssssssssssssssssssssssssssssscccssssssscsssssssssscsccssssssssssssssssssssss"
           inkscape:connector-curvature="0"
           id="path5303"
           d="m -257.78172,869.38787 c -0.64909,-0.24908 -5.10722,0.4628 -9.90695,1.58195 -4.79973,1.11915 -9.80885,2.03482 -11.13136,2.03482 -2.92552,0 -5.51798,3.41661 -5.51798,7.27217 0,9.99648 -13.97781,19.8487 -23.92996,16.86696 -4.78105,-1.43244 -10.49977,-6.13567 -12.74893,-10.48506 -1.54167,-2.98126 -1.4733,-2.958 3.0757,1.04619 8.72708,7.68188 14.7816,9.0357 22.58336,5.04974 6.31922,-3.22852 7.95101,-7.07784 9.02234,-21.28325 0.86804,-11.50991 0.95292,-11.80586 5.96246,-20.7892 2.79503,-5.01219 4.86999,-9.66526 4.61101,-10.34014 -0.71186,-1.85508 -6.76158,-2.63379 -11.19247,-1.44068 -2.32564,0.62623 -5.5269,2.68989 -7.82748,5.04589 l -3.89254,3.98632 -2.284,-2.46447 c -7.65132,-8.25591 -22.09486,5.0263 -23.91139,21.9888 -0.69011,6.44412 -0.69451,6.45145 -3.53969,5.88241 -2.07956,-0.41591 -4.04585,0.18761 -7.28246,2.23525 -4.79969,3.03651 -6.92347,7.01308 -11.14394,20.8659 -1.75773,5.76939 -2.56541,7.12368 -4.40942,7.39353 -1.24164,0.18169 -3.00791,-0.32163 -3.92506,-1.11851 -0.91714,-0.79688 -3.59717,-1.69252 -5.95563,-1.99031 -10.11655,-1.27739 -11.74787,-6.17171 -5.2836,-15.85203 3.49153,-5.2286 3.82509,-6.24258 3,-9.1195 -0.51056,-1.78024 -0.9283,-6.52546 -0.9283,-10.54493 l 0,-7.30812 -10.34478,-10.19848 c -6.92874,-6.83075 -12.6271,-13.66577 -17.25632,-20.69848 -8.15225,-12.38487 -9.92825,-13.28992 -13.85931,-7.06272 -2.74308,4.34532 -5.3112,5.14826 -7.96816,2.49129 -0.86429,-0.86428 -1.57832,-2.55178 -1.58674,-3.75 -0.0256,-3.64522 -1.18862,-4.38055 -8.98469,-5.68075 -9.43372,-1.57332 -12,-2.53986 -12,-4.51958 0,-0.86419 1.38369,-2.33783 3.07487,-3.27475 6.34651,-3.51598 6.4351,-3.63732 4.58464,-6.27922 -3.45784,-4.93676 -1.80402,-6.92427 5.76176,-6.92427 3.57113,0 4.44138,-0.40314 5.39678,-2.5 1.23859,-2.71841 2.31759,-3.03296 5.16911,-1.50687 1.52893,0.81826 2.36819,0.33404 4.76645,-2.75 4.09259,-5.26289 4.29503,-5.69129 5.86051,-12.40188 1.91584,-8.21251 7.12522,-19.00884 13.05659,-27.0595 6.88518,-9.34528 21.80881,-26.20147 26.45648,-29.88248 4.34079,-3.43797 4.8094,-4.84158 1.87281,-5.60952 -1.1,-0.28766 -2,-1.08533 -2,-1.77261 0,-1.96051 8.79223,-8.32184 16.6783,-12.06703 3.94806,-1.87498 7.45222,-3.85228 7.78701,-4.39398 0.3348,-0.54171 -1.67459,-2.14197 -4.46531,-3.55613 -7.71641,-3.9102 -5.78006,-4.90068 8.05239,-4.11894 10.02556,0.56659 11.99416,0.42953 13.35337,-0.92968 0.87683,-0.87683 1.59424,-2.45172 1.59424,-3.49976 0,-2.81849 4.21286,-5.13367 8.67356,-4.76654 3.37466,0.27774 3.86496,0.65165 4.1527,3.16692 0.28926,2.52851 0.62954,2.78295 3,2.24324 8.46327,-1.92693 9.23303,-1.90872 11.25941,0.26634 1.63124,1.75093 3.14297,2.13842 8.34282,2.13842 3.49281,0 9.93733,0.6804 14.32115,1.51199 27.17805,5.15559 48.98783,19.43957 63.65238,41.68816 2.20444,3.34451 4.28847,5.15754 7.22552,6.28594 2.27014,0.87218 4.92739,2.46961 5.90498,3.54985 0.9776,1.08023 2.96936,1.96406 4.42612,1.96406 4.09781,0 11.92546,4.37307 20.01262,11.18045 6.38058,5.37086 8.18788,6.35083 13.5817,7.36444 5.02368,0.94405 6.84324,0.90788 9.44921,-0.18785 5.8909,-2.47694 8.10389,-1.29086 8.91931,4.7804 0.53608,3.99143 0.89623,4.42475 4.90899,5.9062 6.87997,2.53997 8.28249,6.84704 3.17585,9.75287 -3.58579,2.04042 -3.63612,2.43262 -0.80374,6.26362 l 2.20258,2.97915 -2.18499,2.18499 -2.18499,2.18499 -7.42875,-1.84989 c -10.86996,-2.70681 -17.41646,-1.06215 -19.19584,4.82251 -0.93377,3.08816 -4.47027,6.61812 -6.63036,6.61812 -3.08669,0 -7.07208,-4.70105 -6.367,-7.51032 0.79788,-3.17897 -1.02205,-4.04801 -10.18075,-4.86144 -8.43851,-0.74946 -8.14149,-1.06363 -10.27813,10.87176 -1.54507,8.63081 -3.82248,15.39687 -8.02428,23.83959 l -3.22816,6.48637 3.61417,4.92349 c 4.6427,6.32463 9.68212,16.97689 9.68313,20.4681 6.1e-4,2.1047 1.32489,3.79608 5.87214,7.5 7.98713,6.50583 9.53177,9.2309 8.7887,15.50502 -0.71048,5.99885 -2.00426,7.77743 -5.65749,7.77743 -2.25291,0 -2.8605,0.53972 -3.34723,2.97333 -0.42034,2.1017 -1.34025,3.16047 -3.13798,3.61167 -3.2548,0.81691 -4.32234,-0.11719 -10.96028,-9.59024 -6.53611,-9.32773 -9.1479,-11.5193 -14.7724,-12.39564 -7.22598,-1.12585 -17.04193,-3.72601 -22.03315,-5.83637 l -4.74849,-2.00773 -6.09278,2.27855 c -3.35104,1.2532 -6.33733,2.9158 -6.63621,3.69467 4.04016,-0.59379 -22.87532,3.97638 -5.71775,1.65499 z m -98.55629,-63.77624 c 0,-1.61559 -2.13082,-2.60699 -5.60323,-2.60699 -1.63187,0 -2.8168,-0.82776 -3.57872,-2.5 -1.2167,-2.67036 -2.30262,-3.14301 -3.34523,-1.45602 -1.17025,1.89351 2.36078,5.71607 6.22743,6.74156 5.37667,1.42598 6.29975,1.39982 6.29975,-0.17855 z m 67.59695,-9.94387 c 7.11828,-7.29545 9.1897,-10.82739 10.05574,-17.14589 0.56165,-4.09768 0.42739,-4.51723 -1.44556,-4.51723 -3.14231,0 -9.20713,6.21414 -9.20713,9.43382 0,4.30493 -1.70991,6.42441 -5.76215,7.14234 -3.8035,0.67387 -10.23785,5.74595 -10.23785,8.07032 0,1.84514 3.02167,3.2885 6.95698,3.32311 2.94596,0.0259 4.37099,-0.90634 9.63997,-6.30647 z m -97.24185,-12.91312 c 2.00499,-3.21953 2.79927,-8.59305 1.60109,-10.83186 -2.40296,-4.48998 -7.76195,-0.78519 -8.67132,5.99468 -0.87479,6.52202 3.96073,9.83029 7.07023,4.83718 z m 10.77968,-21.12674 c 10.56087,-8.06383 14.27569,-20.62326 6.09992,-20.62326 -5.69934,0 -17.6339,17.19016 -15.60511,22.47711 0.95646,2.4925 4.79288,1.74426 9.50519,-1.85385 z"
           style="fill:#97b43d" />
        <path
           sodipodi:nodetypes="csssssssssssscssssssssssscssssssssssssssssssssssssssssssssssssssssscccssssssscsssssssssscssccssssssssssssssssssssssssssssssssssssssssssssss"
           inkscape:connector-curvature="0"
           id="path5301"
           d="m -257.78172,869.38787 c -0.64909,-0.24908 -5.10722,0.4628 -9.90695,1.58195 -4.79973,1.11915 -9.80885,2.03482 -11.13136,2.03482 -2.92552,0 -5.51798,3.41661 -5.51798,7.27217 0,9.99648 -13.97781,19.8487 -23.92996,16.86696 -4.78105,-1.43244 -10.49977,-6.13567 -12.74893,-10.48506 -1.54167,-2.98126 -1.4733,-2.958 3.0757,1.04619 8.72708,7.68188 14.7816,9.0357 22.58336,5.04974 6.31922,-3.22852 7.95101,-7.07784 9.02234,-21.28325 0.86804,-11.50991 0.95292,-11.80586 5.96246,-20.7892 2.79503,-5.01219 4.86999,-9.66526 4.61101,-10.34014 -0.71186,-1.85508 -6.76158,-2.63379 -11.19247,-1.44068 -2.32564,0.62623 -5.5269,2.68989 -7.82748,5.04589 l -3.89254,3.98632 -2.284,-2.46447 c -7.65132,-8.25591 -22.09486,5.0263 -23.91139,21.9888 -0.69011,6.44412 -0.69451,6.45145 -3.53969,5.88241 -2.07956,-0.41591 -4.04585,0.18761 -7.28246,2.23525 -4.79969,3.03651 -6.92347,7.01308 -11.14394,20.8659 -1.75773,5.76939 -2.56541,7.12368 -4.40942,7.39353 -1.24164,0.18169 -3.00791,-0.32163 -3.92506,-1.11851 -0.91714,-0.79688 -3.59717,-1.69252 -5.95563,-1.99031 -10.11655,-1.27739 -11.74787,-6.17171 -5.2836,-15.85203 3.49153,-5.2286 3.82509,-6.24258 3,-9.1195 -0.51056,-1.78024 -0.9283,-6.52546 -0.9283,-10.54493 l 0,-7.30812 -10.34478,-10.19848 c -6.92874,-6.83075 -12.6271,-13.66577 -17.25632,-20.69848 -8.15225,-12.38487 -9.92825,-13.28992 -13.85931,-7.06272 -2.74308,4.34532 -5.3112,5.14826 -7.96816,2.49129 -0.86429,-0.86428 -1.57832,-2.55178 -1.58674,-3.75 -0.0256,-3.64522 -1.18862,-4.38055 -8.98469,-5.68075 -9.43372,-1.57332 -12,-2.53986 -12,-4.51958 0,-0.86419 1.38369,-2.33783 3.07487,-3.27475 6.34651,-3.51598 6.4351,-3.63732 4.58464,-6.27922 -3.45784,-4.93676 -1.80402,-6.92427 5.76176,-6.92427 3.57113,0 4.44138,-0.40314 5.39678,-2.5 1.23859,-2.71841 2.31759,-3.03296 5.16911,-1.50687 1.52893,0.81826 2.36819,0.33404 4.76645,-2.75 4.09259,-5.26289 4.29503,-5.69129 5.86051,-12.40188 1.91584,-8.21251 7.12522,-19.00884 13.05659,-27.0595 6.88518,-9.34528 21.80881,-26.20147 26.45648,-29.88248 4.34079,-3.43797 4.8094,-4.84158 1.87281,-5.60952 -1.1,-0.28766 -2,-1.08533 -2,-1.77261 0,-1.96051 8.79223,-8.32184 16.6783,-12.06703 3.94806,-1.87498 7.45222,-3.85228 7.78701,-4.39398 0.3348,-0.54171 -1.67459,-2.14197 -4.46531,-3.55613 -7.71641,-3.9102 -5.78006,-4.90068 8.05239,-4.11894 10.02556,0.56659 11.99416,0.42953 13.35337,-0.92968 0.87683,-0.87683 1.59424,-2.45172 1.59424,-3.49976 0,-2.81849 4.21286,-5.13367 8.67356,-4.76654 3.37466,0.27774 3.86496,0.65165 4.1527,3.16692 0.28926,2.52851 0.62954,2.78295 3,2.24324 8.46327,-1.92693 9.23303,-1.90872 11.25941,0.26634 1.63124,1.75093 3.14297,2.13842 8.34282,2.13842 3.49281,0 9.93733,0.6804 14.32115,1.51199 27.17805,5.15559 48.98783,19.43957 63.65238,41.68816 2.20444,3.34451 4.28847,5.15754 7.22552,6.28594 2.27014,0.87218 4.92739,2.46961 5.90498,3.54985 0.9776,1.08023 2.96936,1.96406 4.42612,1.96406 4.09781,0 11.92546,4.37307 20.01262,11.18045 6.38058,5.37086 8.18788,6.35083 13.5817,7.36444 5.02368,0.94405 6.84324,0.90788 9.44921,-0.18785 5.8909,-2.47694 8.10389,-1.29086 8.91931,4.7804 0.53608,3.99143 0.89623,4.42475 4.90899,5.9062 6.87997,2.53997 8.28249,6.84704 3.17585,9.75287 -3.58579,2.04042 -3.63612,2.43262 -0.80374,6.26362 l 2.20258,2.97915 -2.18499,2.18499 -2.18499,2.18499 -7.42875,-1.84989 c -10.86996,-2.70681 -17.41646,-1.06215 -19.19584,4.82251 -0.93377,3.08816 -4.47027,6.61812 -6.63036,6.61812 -3.08669,0 -7.07208,-4.70105 -6.367,-7.51032 0.79788,-3.17897 -1.02205,-4.04801 -10.18075,-4.86144 -8.43851,-0.74946 -8.14149,-1.06363 -10.27813,10.87176 -1.54507,8.63081 -3.82248,15.39687 -8.02428,23.83959 l -3.22816,6.48637 3.61417,4.92349 c 4.6427,6.32463 9.68212,16.97689 9.68313,20.4681 6.1e-4,2.1047 1.32489,3.79608 5.87214,7.5 7.98713,6.50583 9.53177,9.2309 8.7887,15.50502 -0.71048,5.99885 -2.00426,7.77743 -5.65749,7.77743 -2.25291,0 -2.8605,0.53972 -3.34723,2.97333 -0.42034,2.1017 -1.34025,3.16047 -3.13798,3.61167 -3.2548,0.81691 -4.32234,-0.11719 -10.96028,-9.59024 -6.53611,-9.32773 -9.1479,-11.5193 -14.7724,-12.39564 -7.22598,-1.12585 -17.04193,-3.72601 -22.03315,-5.83637 l -4.74849,-2.00773 -6.09278,2.27855 c -3.35104,1.2532 -6.33733,2.9158 -6.63621,3.69467 -0.29888,0.77887 0.40745,2.70224 1.56961,4.27416 -18.01465,-7.70086 1.94573,-10.09733 -7.28736,-2.61917 z m -98.55629,-63.77624 c 0,-1.61559 -2.13082,-2.60699 -5.60323,-2.60699 -1.63187,0 -2.8168,-0.82776 -3.57872,-2.5 -1.2167,-2.67036 -2.30262,-3.14301 -3.34523,-1.45602 -1.17025,1.89351 2.36078,5.71607 6.22743,6.74156 5.37667,1.42598 6.29975,1.39982 6.29975,-0.17855 z m 67.59695,-9.94387 c 7.11828,-7.29545 9.1897,-10.82739 10.05574,-17.14589 0.56165,-4.09768 0.42739,-4.51723 -1.44556,-4.51723 -3.14231,0 -9.20713,6.21414 -9.20713,9.43382 0,4.30493 -1.70991,6.42441 -5.76215,7.14234 -3.8035,0.67387 -10.23785,5.74595 -10.23785,8.07032 0,1.84514 3.02167,3.2885 6.95698,3.32311 2.94596,0.0259 4.37099,-0.90634 9.63997,-6.30647 z m -97.24185,-12.91312 c 2.00499,-3.21953 2.79927,-8.59305 1.60109,-10.83186 -2.40296,-4.48998 -7.76195,-0.78519 -8.67132,5.99468 -0.87479,6.52202 3.96073,9.83029 7.07023,4.83718 z m 10.77968,-21.12674 c 10.56087,-8.06383 14.27569,-20.62326 6.09992,-20.62326 -5.69934,0 -17.6339,17.19016 -15.60511,22.47711 0.95646,2.4925 4.79288,1.74426 9.50519,-1.85385 z m 50.9692,-43.92704 c 1.31781,-1.26708 3.63699,-3.74208 5.15373,-5.5 1.51675,-1.75792 3.18859,-3.19622 3.71521,-3.19622 0.52662,0 2.49505,1.35 4.3743,3 5.41061,4.75058 7.41457,3.3076 4.15645,-2.99291 -1.75807,-3.39972 -1.54924,-3.58923 4.99633,-4.53413 7.81897,-1.12872 8.4213,-1.96449 2.88546,-4.0038 -6.58316,-2.42513 -7.38424,-3.32144 -4.63546,-5.18649 3.03625,-2.06009 2.83327,-2.91602 -0.86705,-3.65608 -2.50429,-0.50086 -3.01415,-1.01688 -2.59362,-2.625 0.84869,-3.24539 -1.05887,-2.30241 -4.24788,2.09988 -3.66792,5.06342 -4.52651,7.60914 -3.13274,9.28853 1.55217,1.87026 0.31553,2.61209 -4.32538,2.59469 -5.12742,-0.0192 -7.41603,-1.27642 -5.82139,-3.19784 1.55125,-1.86915 3.14008,-9.32735 2.28259,-10.7148 -0.79629,-1.28843 -12.70877,-3.74115 -13.64125,-2.80866 -0.33732,0.33732 1.03205,2.05795 3.04304,3.82362 4.32115,3.79403 3.81484,4.73414 -3.56706,6.62331 -5.85521,1.49845 -11.87926,4.16585 -11.87926,5.26002 0,0.40835 3.19291,1.03921 7.09534,1.4019 10.40503,0.96705 12.88069,2.78679 9.24967,6.79902 -1.5497,1.7124 -1.53062,1.82874 0.3,1.82874 2.92968,0 4.31666,1.94165 3.67582,5.14583 -0.69146,3.45732 0.56909,3.64071 3.78315,0.55039 z"
           style="fill:#f12520" />
        <path
           sodipodi:nodetypes="csssssssssssscssssssssssscssssssssssssssssssssssssssssssssssssssssscccssssssscsssssssssscsccsssssssssssssssssssssssssssssscsssssscsscsssssssssssssscsscssscscsssssssssssssssssssssssscssssscsssssssssssscssscssssssssscsssscssssssssssssssssssscssssssssssscsssssssssssssssssssssssssssssssssssscsssssssssccsccssssssssssssssssssssssss"
           inkscape:connector-curvature="0"
           id="path5299"
           d="m -257.78172,869.38787 c -2.44548,-6.41049 -5.10722,0.4628 -9.90695,1.58195 -4.79973,1.11915 -9.80885,2.03482 -11.13136,2.03482 -2.92552,0 -5.51798,3.41661 -5.51798,7.27217 0,9.99648 -13.97781,19.8487 -23.92996,16.86696 -4.78105,-1.43244 -10.49977,-6.13567 -12.74893,-10.48506 -1.54167,-2.98126 -1.4733,-2.958 3.0757,1.04619 8.72708,7.68188 14.7816,9.0357 22.58336,5.04974 6.31922,-3.22852 7.95101,-7.07784 9.02234,-21.28325 0.86804,-11.50991 0.95292,-11.80586 5.96246,-20.7892 2.79503,-5.01219 4.86999,-9.66526 4.61101,-10.34014 -0.71186,-1.85508 -6.76158,-2.63379 -11.19247,-1.44068 -2.32564,0.62623 -5.5269,2.68989 -7.82748,5.04589 l -3.89254,3.98632 -2.284,-2.46447 c -7.65132,-8.25591 -22.09486,5.0263 -23.91139,21.9888 -0.69011,6.44412 -0.69451,6.45145 -3.53969,5.88241 -2.07956,-0.41591 -4.04585,0.18761 -7.28246,2.23525 -4.79969,3.03651 -6.92347,7.01308 -11.14394,20.8659 -1.75773,5.76939 -2.56541,7.12368 -4.40942,7.39353 -1.24164,0.18169 -3.00791,-0.32163 -3.92506,-1.11851 -0.91714,-0.79688 -3.59717,-1.69252 -5.95563,-1.99031 -10.11655,-1.27739 -11.74787,-6.17171 -5.2836,-15.85203 3.49153,-5.2286 3.82509,-6.24258 3,-9.1195 -0.51056,-1.78024 -0.9283,-6.52546 -0.9283,-10.54493 l 0,-7.30812 -10.34478,-10.19848 c -6.92874,-6.83075 -12.6271,-13.66577 -17.25632,-20.69848 -8.15225,-12.38487 -9.92825,-13.28992 -13.85931,-7.06272 -2.74308,4.34532 -5.3112,5.14826 -7.96816,2.49129 -0.86429,-0.86428 -1.57832,-2.55178 -1.58674,-3.75 -0.0256,-3.64522 -1.18862,-4.38055 -8.98469,-5.68075 -9.43372,-1.57332 -12,-2.53986 -12,-4.51958 0,-0.86419 1.38369,-2.33783 3.07487,-3.27475 6.34651,-3.51598 6.4351,-3.63732 4.58464,-6.27922 -3.45784,-4.93676 -1.80402,-6.92427 5.76176,-6.92427 3.57113,0 4.44138,-0.40314 5.39678,-2.5 1.23859,-2.71841 2.31759,-3.03296 5.16911,-1.50687 1.52893,0.81826 2.36819,0.33404 4.76645,-2.75 4.09259,-5.26289 4.29503,-5.69129 5.86051,-12.40188 1.91584,-8.21251 7.12522,-19.00884 13.05659,-27.0595 6.88518,-9.34528 21.80881,-26.20147 26.45648,-29.88248 4.34079,-3.43797 4.8094,-4.84158 1.87281,-5.60952 -1.1,-0.28766 -2,-1.08533 -2,-1.77261 0,-1.96051 8.79223,-8.32184 16.6783,-12.06703 3.94806,-1.87498 7.45222,-3.85228 7.78701,-4.39398 0.3348,-0.54171 -1.67459,-2.14197 -4.46531,-3.55613 -7.71641,-3.9102 -5.78006,-4.90068 8.05239,-4.11894 10.02556,0.56659 11.99416,0.42953 13.35337,-0.92968 0.87683,-0.87683 1.59424,-2.45172 1.59424,-3.49976 0,-2.81849 4.21286,-5.13367 8.67356,-4.76654 3.37466,0.27774 3.86496,0.65165 4.1527,3.16692 0.28926,2.52851 0.62954,2.78295 3,2.24324 8.46327,-1.92693 9.23303,-1.90872 11.25941,0.26634 1.63124,1.75093 3.14297,2.13842 8.34282,2.13842 3.49281,0 9.93733,0.6804 14.32115,1.51199 27.17805,5.15559 48.98783,19.43957 63.65238,41.68816 2.20444,3.34451 4.28847,5.15754 7.22552,6.28594 2.27014,0.87218 4.92739,2.46961 5.90498,3.54985 0.9776,1.08023 2.96936,1.96406 4.42612,1.96406 4.09781,0 11.92546,4.37307 20.01262,11.18045 6.38058,5.37086 8.18788,6.35083 13.5817,7.36444 5.02368,0.94405 6.84324,0.90788 9.44921,-0.18785 5.8909,-2.47694 8.10389,-1.29086 8.91931,4.7804 0.53608,3.99143 0.89623,4.42475 4.90899,5.9062 6.87997,2.53997 8.28249,6.84704 3.17585,9.75287 -3.58579,2.04042 -3.63612,2.43262 -0.80374,6.26362 l 2.20258,2.97915 -2.18499,2.18499 -2.18499,2.18499 -7.42875,-1.84989 c -10.86996,-2.70681 -17.41646,-1.06215 -19.19584,4.82251 -0.93377,3.08816 -4.47027,6.61812 -6.63036,6.61812 -3.08669,0 -7.07208,-4.70105 -6.367,-7.51032 0.79788,-3.17897 -1.02205,-4.04801 -10.18075,-4.86144 -8.43851,-0.74946 -8.14149,-1.06363 -10.27813,10.87176 -1.54507,8.63081 -3.82248,15.39687 -8.02428,23.83959 l -3.22816,6.48637 3.61417,4.92349 c 4.6427,6.32463 9.68212,16.97689 9.68313,20.4681 6.1e-4,2.1047 1.32489,3.79608 5.87214,7.5 7.98713,6.50583 9.53177,9.2309 8.7887,15.50502 -0.71048,5.99885 -2.00426,7.77743 -5.65749,7.77743 -2.25291,0 -2.8605,0.53972 -3.34723,2.97333 -0.42034,2.1017 -1.34025,3.16047 -3.13798,3.61167 -3.2548,0.81691 -4.32234,-0.11719 -10.96028,-9.59024 -6.53611,-9.32773 -9.1479,-11.5193 -14.7724,-12.39564 -7.22598,-1.12585 -17.04193,-3.72601 -22.03315,-5.83637 l -4.74849,-2.00773 -6.09278,2.27855 c -3.35104,1.2532 -8.79339,-2.33334 -9.09227,-1.55447 -13.12476,2.97086 1.58775,5.68901 -3.26169,6.90413 z m -100.65985,26.17032 c 1.53842,-0.79554 3.66389,-1.21978 4.72326,-0.94275 2.59261,0.67798 6.76764,-7.57075 5.87922,-11.61573 -0.52471,-2.38897 0.11799,-3.38494 4.98155,-7.71976 4.26805,-3.80406 5.28181,-5.21673 4.30176,-5.9945 -2.75965,-2.19006 -19.25884,-9.31189 -20.48386,-8.84181 -1.64151,0.62991 -1.73667,9.93469 -0.16542,16.1747 1.05943,4.20739 0.97003,4.6741 -1.37782,7.19282 -4.92355,5.28186 -6.16216,10.27458 -3.00513,12.11338 2.22708,1.29715 1.88209,1.32171 5.14644,-0.36635 z m 174.62707,-16.11512 c 2.4443,0.45856 3.39637,0.21276 3.86047,-0.99667 1.29031,-3.36252 0.48236,-5.63145 -3.57133,-10.02919 -5.66825,-6.14932 -7.47297,-7.02995 -9.90197,-4.83174 -2.56035,2.31709 -3.39239,1.23977 -2.0396,-2.64085 2.1727,-6.23262 -4.33022,-24.64399 -9.39008,-26.58564 -1.03557,-0.39739 -5.52715,3.46129 -14.0028,12.02969 -6.86301,6.93811 -12.4782,12.85601 -12.4782,13.1509 0,1.3565 9.35938,4.31737 16.8219,5.32167 4.53581,0.61043 9.12199,1.57819 10.19151,2.15058 1.06952,0.57239 3.81999,3.84243 6.11214,7.26676 6.76554,10.10728 6.77869,10.11751 9.1428,7.11203 1.66648,-2.11858 2.56616,-2.452 5.25516,-1.94754 z m -82.8548,-12.68843 c 2.89054,-0.94431 3.91743,-1.8653 4.18211,-3.75082 0.49329,-3.51419 2.12824,-4.16081 4.93604,-1.9522 2.14488,1.68717 2.76001,1.74929 5.56236,0.5617 1.73293,-0.73439 5.99279,-2.5399 9.46636,-4.01225 6.66432,-2.82482 21.89302,-13.56022 28.76798,-20.27986 7.05745,-6.898 12.26878,-17.83604 15.87337,-33.31657 0.83243,-3.575 1.52016,-8.40492 1.52829,-10.73315 0.0142,-4.08004 -0.16608,-4.32481 -4.98522,-6.76685 -5.07204,-2.5702 -7.14943,-6.29535 -2.88946,-5.18134 1.52434,0.39862 2.25111,0.0144 2.61663,-1.38337 0.62792,-2.40117 0.78772,-2.39822 4.81172,0.0887 2.96941,1.8352 7.80263,2.75633 24.33667,4.63816 2.73622,0.31143 5.23769,1.36015 6.67669,2.79915 l 2.30113,2.30113 2.73826,-2.85812 c 3.77993,-3.9454 8.47325,-5.28088 16.06672,-4.57179 l 6.34164,0.59219 0,-3.23987 c 0,-1.78193 0.66764,-4.19306 1.48365,-5.35808 1.36635,-1.95074 1.28801,-2.24639 -0.99092,-3.7396 -1.68017,-1.1009 -2.68182,-2.91753 -3.12019,-5.6589 -0.50382,-3.15072 -0.99569,-3.90315 -2.23952,-3.42585 -0.87665,0.3364 -5.57462,0.30024 -10.43993,-0.0804 -8.63926,-0.67584 -8.96693,-0.79611 -14.01955,-5.14595 -7.22167,-6.21718 -22.77666,-13.89522 -29.97164,-14.79417 -6.14275,-0.76749 -7.5557,-1.74826 -5.71458,-3.96668 1.17377,-1.41431 -0.18241,-1.88511 -7.90899,-2.74559 -3.39178,-0.37773 -3.75231,-2.56295 -0.61937,-3.75409 3.45425,-1.3133 2.90991,-2.22768 -8.12955,-13.65612 -17.01629,-17.61586 -36.51211,-27.35281 -60.6869,-30.30935 -6.91575,-0.84578 -15.88903,-0.13694 -17.40052,1.37455 -0.40637,0.40636 -0.0367,1.26455 0.82155,1.90708 0.85822,0.64253 1.84636,1.93091 2.19587,2.86307 0.36685,0.97839 2.24289,1.98371 4.43803,2.37822 5.13167,0.92227 7.67882,2.35011 4.30256,2.41185 -1.375,0.0251 -3.175,0.49707 -4,1.04871 -1.33333,0.89154 -1.33333,1.10295 0,1.90271 4.9869,2.99123 10,7.28743 10,8.56995 0,2.03078 -3.19222,1.87787 -10.83909,-0.51917 -3.48651,-1.09284 -7.58142,-1.98703 -9.09982,-1.98703 l -2.76072,0 0.47266,7.36506 c 0.62262,9.70161 -0.55499,10.36323 -6.66939,3.74708 -2.59846,-2.81168 -5.05925,-5.11214 -5.46844,-5.11214 -0.40919,0 -3.90798,2.72317 -7.77509,6.05149 -5.66055,4.87188 -7.30683,5.82265 -8.44561,4.87755 -0.77797,-0.64566 -1.4145,-2.24383 -1.4145,-3.55148 0,-2.89674 -0.94539,-2.95623 -6,-0.37756 -6.74301,3.44003 -8.72305,2.46022 -4.886,-2.4178 2.867,-3.6448 1.89605,-4.13813 -3.114,-1.5822 -2.3066,1.17674 -4.45964,1.8737 -4.78454,1.5488 -0.3249,-0.3249 1.40621,-2.65664 3.84691,-5.18164 4.01963,-4.15847 4.15504,-4.44782 1.43763,-3.0719 -1.65,0.83545 -5.025,3.40182 -7.5,5.70305 -2.475,2.30122 -7.20424,6.38375 -10.50942,9.07228 -15.23835,12.39531 -27.68765,31.13244 -31.85039,47.93721 -2.79655,11.28955 -2.97706,15.29393 -1.15623,25.64991 2.20144,12.52067 4.59955,19.31847 10.17549,28.84385 4.88936,8.35249 16.50123,21.24113 22.2108,24.65297 1.99636,1.19295 4.52975,2.96018 5.62975,3.92718 6.50765,5.72081 28.37206,14.44623 30.60484,12.21345 0.48315,-0.48315 1.40068,-3.47876 2.03894,-6.65691 1.08066,-5.38101 1.01514,-5.92377 -0.95271,-7.89162 -2.05697,-2.05697 -2.12968,-2.06176 -2.73348,-0.17991 -2.3784,7.41272 -3.0672,7.68393 -10.24083,4.03227 -5.15331,-2.62324 -9.89201,-7.06363 -8.47366,-7.94021 0.49142,-0.30372 3.26995,0.5488 6.1745,1.8945 2.90455,1.3457 5.67716,2.44672 6.16137,2.44672 0.48421,0 1.79867,-1.8 2.92103,-4 1.12236,-2.2 2.23652,-4 2.47591,-4 0.2394,0 2.12475,1.14651 4.18967,2.54781 l 3.7544,2.5478 3.21158,-3.7978 c 6.78307,-8.02124 5.47623,-13.68472 -4.21424,-18.26325 -7.91853,-3.74132 -9.08402,-3.2312 -10.53412,4.61069 -1.02058,5.51909 -3.04672,7.61034 -6.23668,6.43708 -5.77355,-2.12348 -7.64652,-2.17831 -7.64652,-0.22383 0,1.04314 -0.64623,2.43294 -1.43608,3.08845 -1.75274,1.45464 -3.61813,0.57275 -9.94968,-4.70385 -2.4703,-2.05871 -6.31908,-4.97632 -8.55285,-6.4836 -3.73686,-2.52151 -5.45309,-5.7595 -3.0527,-5.7595 0.55478,0 3.71971,2.49233 7.03319,5.5385 6.26902,5.76329 8.02251,6.24918 7.20981,1.9978 -0.77715,-4.0654 2.15623,-4.24947 9.30325,-0.58376 3.48529,1.7876 6.87811,3.06978 7.53959,2.84928 0.66148,-0.22049 1.82205,-2.82103 2.57904,-5.77897 1.5652,-6.116 2.82445,-8.02285 5.29817,-8.02285 1.65981,0 8.48457,3.33977 21.77757,10.65709 l 6.24932,3.44003 0.90486,-2.29856 c 0.49768,-1.26421 1.53772,-4.09856 2.3112,-6.29856 1.45115,-4.12746 2.50641,-4.54946 7.47126,-2.98781 1.91064,0.60098 2.27289,0.22413 2.87627,-2.99215 0.37967,-2.02384 1.27641,-3.90462 1.99274,-4.1795 0.71633,-0.27488 3.62491,1.33604 6.46352,3.57984 2.83862,2.24379 5.75637,4.07962 6.48389,4.07962 0.72753,0 2.54902,-3.2625 4.04777,-7.25 6.16701,-16.40774 5.71489,-16.0152 14.68064,-12.74613 l 6.15861,2.24555 2.32588,-2.87471 c 3.15127,-3.89486 7.65562,-13.57928 9.70911,-20.87471 0.92887,-3.3 1.9341,-6.83602 2.23384,-7.85781 0.50072,-1.70689 0.11024,-1.79861 -4.80661,-1.12909 l -5.35161,0.72873 1.88602,-2.09996 c 1.03731,-1.15498 4.38385,-3.03451 7.43674,-4.17675 5.37407,-2.01069 5.62739,-2.01932 7.96012,-0.27095 1.32518,0.99321 3.58699,3.80326 5.02626,6.24455 2.35746,3.99875 2.42227,4.35921 0.65385,3.63655 -5.50524,-2.24971 -5.17287,-3.21042 -5.73961,16.59054 -0.50976,17.81048 -1.23969,22.42378 -4.75184,30.03259 -0.68505,1.48412 -2.1964,2.83412 -3.35855,3 -1.70474,0.24333 -2.17167,1.1077 -2.41668,4.47372 -0.16703,2.29466 -1.00607,4.75504 -1.86454,5.4675 -1.64392,1.36433 -3.39724,-0.0807 -7.48908,-6.17234 -1.26565,-1.8842 -1.76401,-2.11279 -2.10879,-0.96728 -3.40222,11.30365 -6.4968,18 -8.31835,18 -1.58999,0 -3.87346,-4.10136 -4.87648,-8.75873 -0.87401,-4.05828 -2.16038,-3.35259 -4.80829,2.63778 -1.12343,2.54152 -3.77312,6.19595 -5.88821,8.12095 -3.04969,2.7756 -4.1718,4.80947 -5.4216,9.82684 -2.17545,8.73343 -1.68356,9.59691 5.01827,8.80925 2.969,-0.34895 7.12227,-1.19769 9.22947,-1.88609 z m -96.41871,-53.3889 c -0.6875,-0.29027 -1.25,-1.3575 -1.25,-2.37163 0,-1.01412 -1.5174,-3.11412 -3.37199,-4.66667 -1.85459,-1.55254 -4.11615,-4.2853 -5.02568,-6.0728 -1.03636,-2.03675 -2.40243,-3.25 -3.65939,-3.25 -2.46088,0 -3.7538,-2.87295 -1.83866,-4.08561 0.76765,-0.48607 3.05939,-0.89066 5.09276,-0.89908 2.92637,-0.0121 5.11516,1.06622 10.5,5.17296 3.74163,2.85355 9.48402,6.17173 12.76087,7.37372 7.45158,2.73335 8.29468,4.43801 2.19497,4.43801 -3.91961,0 -4.55584,0.29618 -4.83333,2.25 -0.27229,1.91721 -0.98513,2.27876 -4.81955,2.44443 -2.475,0.10693 -5.0625,-0.0431 -5.75,-0.33333 z m 6.75,-7.75411 c 0,-1.61559 -2.13082,-2.60699 -5.60323,-2.60699 -1.63187,0 -2.8168,-0.82776 -3.57872,-2.5 -1.2167,-2.67036 -2.30262,-3.14301 -3.34523,-1.45602 -1.17025,1.89351 2.36078,5.71607 6.22743,6.74156 5.37667,1.42598 6.29975,1.39982 6.29975,-0.17855 z m 54.76311,1.46519 c -1.85521,-2.64868 -8.31191,-4.86864 -12.76311,-4.38823 -4.1412,0.44694 -6.5332,-0.85206 -5.6771,-3.08303 0.43667,-1.13794 1.90874,-1.60092 5.09023,-1.60092 4.13773,0 4.80121,-0.38017 8.78139,-5.03167 5.43527,-6.35203 21.37672,-20.31934 29.51877,-25.86326 7.01104,-4.77383 16.50649,-8.48748 19.37433,-7.57726 3.49088,1.10796 2.02838,3.53095 -3.64594,6.0404 -8.59133,3.79949 -11.36353,6.33043 -14.50345,13.24123 -1.57669,3.4702 -4.92481,9.25359 -7.44027,12.85199 -3.38103,4.8366 -4.29846,6.87402 -3.51851,7.81381 1.58841,1.91392 0.34227,3.97926 -3.77577,6.25793 -5.9828,3.31052 -9.75078,3.75153 -11.44057,1.33901 z m 12.83384,-11.40906 c 7.11828,-7.29545 9.1897,-10.82739 10.05574,-17.14589 0.56165,-4.09768 0.42739,-4.51723 -1.44556,-4.51723 -3.14231,0 -9.20713,6.21414 -9.20713,9.43382 0,4.30493 -1.70991,6.42441 -5.76215,7.14234 -3.8035,0.67387 -10.23785,5.74595 -10.23785,8.07032 0,1.84514 3.02167,3.2885 6.95698,3.32311 2.94596,0.0259 4.37099,-0.90634 9.63997,-6.30647 z m -43.59669,-5.89322 c -2.53688,-2.72302 -3.23794,-5.28078 -2.81985,-10.28792 0.38504,-4.6112 2.51061,-5.76254 3.32866,-1.80302 0.32056,1.55157 1.44995,5.02127 2.50975,7.71044 2.63399,6.68356 1.14294,8.84735 -3.01856,4.3805 z m 54.53938,-90.11726 c -1.0489,-0.76697 -1.41739,-1.61016 -0.85545,-1.95746 1.40326,-0.86726 6.60841,0.68263 7.08398,2.10934 0.54707,1.6412 -3.92549,1.53214 -6.22853,-0.15188 z m -125.37807,112.34736 c 3.88042,-0.44721 4.32272,-0.76393 4.18957,-3 -0.18383,-3.08733 -3.95446,-16.93665 -4.85689,-17.83908 -0.36235,-0.36235 -2.30928,1.26018 -4.32653,3.60562 -4.21694,4.903 -5.16772,5.22193 -5.16772,1.73346 0,-3.02198 -0.40973,-3.09027 -3,-0.5 -1.1,1.1 -2.675,2 -3.5,2 -0.99906,0 -1.5,0.99906 -1.5,2.99153 0,1.90852 -0.72405,3.4437 -2,4.24054 -3.12996,1.95469 -2.43162,2.57211 3.75,3.31549 6.55543,0.78833 9.23444,2.62256 9.28544,6.35743 l 0.0354,2.59501 1.37614,-2.5 c 1.04779,-1.9035 2.41128,-2.6193 5.71456,-3 z m 78.94241,-94.30378 c 1.31781,-1.26708 3.63699,-3.74208 5.15373,-5.5 1.51675,-1.75792 3.18859,-3.19622 3.71521,-3.19622 0.52662,0 2.49505,1.35 4.3743,3 5.41061,4.75058 7.41457,3.3076 4.15645,-2.99291 -1.75807,-3.39972 -1.54924,-3.58923 4.99633,-4.53413 7.81897,-1.12872 8.4213,-1.96449 2.88546,-4.0038 -6.58316,-2.42513 -7.38424,-3.32144 -4.63546,-5.18649 3.03625,-2.06009 2.83327,-2.91602 -0.86705,-3.65608 -2.50429,-0.50086 -3.01415,-1.01688 -2.59362,-2.625 0.84869,-3.24539 -1.05887,-2.30241 -4.24788,2.09988 -3.66792,5.06342 -4.52651,7.60914 -3.13274,9.28853 1.55217,1.87026 0.31553,2.61209 -4.32538,2.59469 -5.12742,-0.0192 -7.41603,-1.27642 -5.82139,-3.19784 1.55125,-1.86915 3.14008,-9.32735 2.28259,-10.7148 -0.79629,-1.28843 -12.70877,-3.74115 -13.64125,-2.80866 -0.33732,0.33732 1.03205,2.05795 3.04304,3.82362 4.32115,3.79403 3.81484,4.73414 -3.56706,6.62331 -5.85521,1.49845 -11.87926,4.16585 -11.87926,5.26002 0,0.40835 3.19291,1.03921 7.09534,1.4019 10.40503,0.96705 12.88069,2.78679 9.24967,6.79902 -1.5497,1.7124 -1.53062,1.82874 0.3,1.82874 2.92968,0 4.31666,1.94165 3.67582,5.14583 -0.69146,3.45732 0.56909,3.64071 3.78315,0.55039 z"
           style="fill:#655c5c" />
        <path
           sodipodi:nodetypes="sssssssssssssssssssssscssscssssssssssscscsssssssssssssssssssssssssssssssssssssscsccssssssssscssssssssssssssssssssssssssssssssssssssscsssssscsscsssssssssssssscsscssscscsssssssssssssssssssssssscssssscsssssssssssscssscssssssssscsssscssssssssssssssssssscssssssssssscssssssssssssssssssssssssssssssssssscsssssssssccsccssssssssssscsscsscsscssssss"
           inkscape:connector-curvature="0"
           id="path5297"
           d="m -354.91525,901.33532 c -0.71135,-1.14242 -2.45106,-1.76449 -5.12204,-1.8315 -5.13694,-0.12888 -9.30072,-2.7747 -9.30072,-5.91002 0,-1.30061 1.6266,-4.72939 3.61466,-7.61953 1.98807,-2.89014 3.57057,-6.20314 3.51668,-7.36221 -0.0539,-1.15908 -0.44299,-6.73365 -0.86466,-12.38793 -0.76376,-10.24129 -0.78003,-10.29054 -4.26668,-12.91041 -6.58151,-4.94535 -16.15395,-15.80406 -22.75186,-25.80908 -3.62704,-5.5 -7.27766,-10.5625 -8.1125,-11.25 -2.96795,-2.44413 -5.8821,-1.47342 -8.2558,2.75 -3.17813,5.65473 -7.87984,5.01178 -7.87984,-1.07756 0,-3.68406 -1.44982,-4.59589 -9.51865,-5.98657 -12.39757,-2.13674 -14.15401,-3.63636 -7.82166,-6.678 5.07086,-2.43571 6.25306,-4.59181 3.92699,-7.16209 -2.91014,-3.21567 -1.40156,-4.94689 4.61119,-5.29171 4.38164,-0.25128 5.4735,-0.69469 6.28926,-2.55407 1.03316,-2.35492 2.9592,-2.95488 4.01287,-1.25 1.28501,2.07919 3.42854,0.83833 6.90079,-3.9948 1.97362,-2.74713 4.03986,-7.00926 4.59163,-9.47139 3.80729,-16.9889 13.20639,-31.41872 35.31942,-54.22358 9.58949,-9.88952 10.85878,-12.31023 6.45483,-12.31023 -2.09011,0 -2.08726,-0.0298 0.23917,-2.50621 2.28894,-2.43647 12.19173,-8.53419 13.72901,-8.45375 0.42083,0.022 -0.5002,0.72598 -2.04673,1.56436 -4.45933,2.4174 -2.73217,3.8309 5.61571,4.59589 4.20304,0.38516 8.6471,1.23827 9.87569,1.89579 l 2.2338,1.19549 -3.20666,2.67704 c -1.76366,1.47237 -3.20666,3.00125 -3.20666,3.3975 0,0.39625 1.6875,0.58848 3.75,0.42717 3.65497,-0.28585 3.74376,-0.21235 3.50387,2.9001 -0.13537,1.75635 0.17315,3.4525 0.6856,3.76921 0.51245,0.31671 3.47564,-1.90781 6.58485,-4.94337 3.10922,-3.03557 6.06191,-5.51922 6.56152,-5.51922 0.49962,0 2.65337,1.57648 4.78611,3.50328 3.21897,2.90814 4.07437,3.26633 5.03532,2.10845 0.88295,-1.06388 0.82087,-2.37224 -0.26163,-5.51422 -1.73437,-5.03405 -1.26338,-5.42873 6.84003,-5.73174 3.30788,-0.12368 6.37839,-0.25658 6.82335,-0.29533 2.13039,-0.1855 -0.97971,-2.20755 -6.48017,-4.21311 l -6.10449,-2.22581 2.64474,-2.10884 c 2.06544,-1.64693 2.38038,-2.3732 1.43782,-3.31576 -0.66381,-0.66381 -1.99036,-1.20692 -2.9479,-1.20692 -2.62275,0 -3.30006,-1.95619 -1.20916,-3.49229 1.01758,-0.74757 1.85014,-2.37057 1.85014,-3.60666 0,-3.41094 5.1245,-4.52343 8.70951,-1.89078 2.09047,1.53514 4.29595,1.98973 9.65332,1.98973 3.81909,0 11.22657,0.86154 16.46106,1.91452 24.9031,5.0096 45.86888,18.84102 60.6916,40.03912 2.98999,4.27601 5.40238,6.657 7.23871,7.14448 1.51481,0.40214 4.13683,1.89457 5.82672,3.31652 1.68989,1.42195 4.0505,2.58976 5.24581,2.59513 3.87375,0.0174 12.08908,4.56353 20.24841,11.20488 7.00439,5.70127 8.74429,6.62792 14.27346,7.60186 5.25215,0.92515 6.95011,0.84772 10.23533,-0.46677 4.9522,-1.98148 7.40468,-0.54277 6.52998,3.8307 -0.65213,3.26065 0.21555,4.23559 6.38609,7.17554 6.02674,2.87144 6.63992,6.06087 1.57228,8.17827 -1.96475,0.82092 -3.57228,1.75307 -3.57228,2.07144 0,0.31837 0.9,1.72302 2,3.12144 4.43269,5.63525 1.48744,8.23422 -6.56367,5.79194 -5.67161,-1.72047 -12.1741,-1.94947 -15.83483,-0.55766 -1.54689,0.58813 -3.50549,2.88901 -5.04448,5.92607 -2.70004,5.32826 -5.26565,6.87401 -8.51925,5.13274 -1.51963,-0.81329 -2.03777,-2.08976 -2.03777,-5.02022 0,-4.94598 -1.11774,-5.56446 -11.72502,-6.48778 -9.65523,-0.84045 -8.97555,-1.5945 -11.70671,12.98778 -0.9271,4.95 -3.27532,12.6 -5.21828,17 -6.33254,14.34061 -6.11239,12.86765 -2.5326,16.9448 4.11323,4.68471 7.81197,12.03464 9.69569,19.26674 1.12911,4.33495 2.293,6.35369 4.74167,8.22433 7.91748,6.04849 10.7459,9.65871 10.73051,13.69648 -0.0222,5.81934 -1.91869,8.77831 -6.00408,9.36765 -2.91705,0.4208 -3.54747,0.97519 -3.98005,3.5 -0.36264,2.11664 -1.15541,3.09158 -2.69231,3.311 -1.73371,0.24752 -3.33425,-1.33862 -7.84161,-7.77112 -8.64145,-12.33227 -9.95144,-13.37794 -18.56438,-14.81868 -4.07155,-0.68107 -11.51524,-2.64063 -16.54152,-4.35456 l -9.1387,-3.11625 -6.19761,2.37481 c -3.40869,1.30614 -6.59128,3.10002 -7.07242,3.9864 -12.07374,-1.69028 8.57311,-8.95794 -4.74194,0.89541 -0.94085,0.004 -5.45165,0.90385 -10.02399,2 -4.57234,1.09614 -9.60828,1.99299 -11.19098,1.99299 -1.5827,0 -3.15575,0.45 -3.49567,1 -0.33992,0.55 -1.10362,1 -1.69711,1 -1.68106,0 -0.0472,-12.56132 2.36243,-18.16266 1.14116,-2.65269 3.5958,-6.96234 5.45475,-9.57701 1.85896,-2.61466 3.37993,-5.08132 3.37993,-5.48145 0,-1.39337 -5.92465,-3.77888 -9.38524,-3.77888 -4.66406,0 -7.70122,1.259 -11.87274,4.92165 l -3.48017,3.05562 -3.97211,-2.17574 c -3.62007,-1.98291 -4.26941,-2.05259 -7.32663,-0.78625 -4.22147,1.74859 -9.30383,6.17377 -11.83498,10.30465 -1.07171,1.74904 -2.74059,6.89257 -3.70864,11.43007 -1.66402,7.7997 -1.90386,8.25 -4.39401,8.25 -3.66163,0 -11.83648,5.41535 -13.19614,8.74166 -0.62012,1.51709 -2.57257,7.03334 -4.33876,12.25834 -2.41331,7.13941 -3.68081,9.56966 -5.10092,9.78035 -1.03931,0.15419 -2.37442,-0.49816 -2.9669,-1.44967 z m -3.52632,-5.77713 c 1.53842,-0.79554 3.66389,-1.21978 4.72326,-0.94275 2.59261,0.67798 6.76764,-7.57075 5.87922,-11.61573 -0.52471,-2.38897 0.11799,-3.38494 4.98155,-7.71976 4.26805,-3.80406 5.28181,-5.21673 4.30176,-5.9945 -2.75965,-2.19006 -19.25884,-9.31189 -20.48386,-8.84181 -1.64151,0.62991 -1.73667,9.93469 -0.16542,16.1747 1.05943,4.20739 0.97003,4.6741 -1.37782,7.19282 -4.92355,5.28186 -6.16216,10.27458 -3.00513,12.11338 2.22708,1.29715 1.88209,1.32171 5.14644,-0.36635 z m 174.62707,-16.11512 c 2.4443,0.45856 3.39637,0.21276 3.86047,-0.99667 1.29031,-3.36252 0.48236,-5.63145 -3.57133,-10.02919 -5.66825,-6.14932 -7.47297,-7.02995 -9.90197,-4.83174 -2.56035,2.31709 -3.39239,1.23977 -2.0396,-2.64085 2.1727,-6.23262 -4.33022,-24.64399 -9.39008,-26.58564 -1.03557,-0.39739 -5.52715,3.46129 -14.0028,12.02969 -6.86301,6.93811 -12.4782,12.85601 -12.4782,13.1509 0,1.3565 9.35938,4.31737 16.8219,5.32167 4.53581,0.61043 9.12199,1.57819 10.19151,2.15058 1.06952,0.57239 3.81999,3.84243 6.11214,7.26676 6.76554,10.10728 6.77869,10.11751 9.1428,7.11203 1.66648,-2.11858 2.56616,-2.452 5.25516,-1.94754 z m -82.8548,-12.68843 c 2.89054,-0.94431 3.91743,-1.8653 4.18211,-3.75082 0.49329,-3.51419 2.12824,-4.16081 4.93604,-1.9522 2.14488,1.68717 2.76001,1.74929 5.56236,0.5617 1.73293,-0.73439 5.99279,-2.5399 9.46636,-4.01225 6.66432,-2.82482 21.89302,-13.56022 28.76798,-20.27986 7.05745,-6.898 12.26878,-17.83604 15.87337,-33.31657 0.83243,-3.575 1.52016,-8.40492 1.52829,-10.73315 0.0142,-4.08004 -0.16608,-4.32481 -4.98522,-6.76685 -5.07204,-2.5702 -7.14943,-6.29535 -2.88946,-5.18134 1.52434,0.39862 2.25111,0.0144 2.61663,-1.38337 0.62792,-2.40117 0.78772,-2.39822 4.81172,0.0887 2.96941,1.8352 7.80263,2.75633 24.33667,4.63816 2.73622,0.31143 5.23769,1.36015 6.67669,2.79915 l 2.30113,2.30113 2.73826,-2.85812 c 3.77993,-3.9454 8.47325,-5.28088 16.06672,-4.57179 l 6.34164,0.59219 0,-3.23987 c 0,-1.78193 0.66764,-4.19306 1.48365,-5.35808 1.36635,-1.95074 1.28801,-2.24639 -0.99092,-3.7396 -1.68017,-1.1009 -2.68182,-2.91753 -3.12019,-5.6589 -0.50382,-3.15072 -0.99569,-3.90315 -2.23952,-3.42585 -0.87665,0.3364 -5.57462,0.30024 -10.43993,-0.0804 -8.63926,-0.67584 -8.96693,-0.79611 -14.01955,-5.14595 -7.22167,-6.21718 -22.77666,-13.89522 -29.97164,-14.79417 -6.14275,-0.76749 -7.5557,-1.74826 -5.71458,-3.96668 1.17377,-1.41431 -0.18241,-1.88511 -7.90899,-2.74559 -3.39178,-0.37773 -3.75231,-2.56295 -0.61937,-3.75409 3.45425,-1.3133 2.90991,-2.22768 -8.12955,-13.65612 -17.01629,-17.61586 -36.51211,-27.35281 -60.6869,-30.30935 -6.91575,-0.84578 -15.88903,-0.13694 -17.40052,1.37455 -0.40637,0.40636 -0.0367,1.26455 0.82155,1.90708 0.85822,0.64253 1.84636,1.93091 2.19587,2.86307 0.36685,0.97839 2.24289,1.98371 4.43803,2.37822 5.13167,0.92227 7.67882,2.35011 4.30256,2.41185 -1.375,0.0251 -3.175,0.49707 -4,1.04871 -1.33333,0.89154 -1.33333,1.10295 0,1.90271 4.9869,2.99123 10,7.28743 10,8.56995 0,2.03078 -3.19222,1.87787 -10.83909,-0.51917 -3.48651,-1.09284 -7.58142,-1.98703 -9.09982,-1.98703 l -2.76072,0 0.47266,7.36506 c 0.62262,9.70161 -0.55499,10.36323 -6.66939,3.74708 -2.59846,-2.81168 -5.05925,-5.11214 -5.46844,-5.11214 -0.40919,0 -3.90798,2.72317 -7.77509,6.05149 -5.66055,4.87188 -7.30683,5.82265 -8.44561,4.87755 -0.77797,-0.64566 -1.4145,-2.24383 -1.4145,-3.55148 0,-2.89674 -0.94539,-2.95623 -6,-0.37756 -6.74301,3.44003 -8.72305,2.46022 -4.886,-2.4178 2.867,-3.6448 1.89605,-4.13813 -3.114,-1.5822 -2.3066,1.17674 -4.45964,1.8737 -4.78454,1.5488 -0.3249,-0.3249 1.40621,-2.65664 3.84691,-5.18164 4.01963,-4.15847 4.15504,-4.44782 1.43763,-3.0719 -1.65,0.83545 -5.025,3.40182 -7.5,5.70305 -2.475,2.30122 -7.20424,6.38375 -10.50942,9.07228 -15.23835,12.39531 -27.68765,31.13244 -31.85039,47.93721 -2.79655,11.28955 -2.97706,15.29393 -1.15623,25.64991 2.20144,12.52067 4.59955,19.31847 10.17549,28.84385 4.88936,8.35249 16.50123,21.24113 22.2108,24.65297 1.99636,1.19295 4.52975,2.96018 5.62975,3.92718 6.50765,5.72081 28.37206,14.44623 30.60484,12.21345 0.48315,-0.48315 1.40068,-3.47876 2.03894,-6.65691 1.08066,-5.38101 1.01514,-5.92377 -0.95271,-7.89162 -2.05697,-2.05697 -2.12968,-2.06176 -2.73348,-0.17991 -2.3784,7.41272 -3.0672,7.68393 -10.24083,4.03227 -5.15331,-2.62324 -9.89201,-7.06363 -8.47366,-7.94021 0.49142,-0.30372 3.26995,0.5488 6.1745,1.8945 2.90455,1.3457 5.67716,2.44672 6.16137,2.44672 0.48421,0 1.79867,-1.8 2.92103,-4 1.12236,-2.2 2.23652,-4 2.47591,-4 0.2394,0 2.12475,1.14651 4.18967,2.54781 l 3.7544,2.5478 3.21158,-3.7978 c 6.78307,-8.02124 5.47623,-13.68472 -4.21424,-18.26325 -7.91853,-3.74132 -9.08402,-3.2312 -10.53412,4.61069 -1.02058,5.51909 -3.04672,7.61034 -6.23668,6.43708 -5.77355,-2.12348 -7.64652,-2.17831 -7.64652,-0.22383 0,1.04314 -0.64623,2.43294 -1.43608,3.08845 -1.75274,1.45464 -3.61813,0.57275 -9.94968,-4.70385 -2.4703,-2.05871 -6.31908,-4.97632 -8.55285,-6.4836 -3.73686,-2.52151 -5.45309,-5.7595 -3.0527,-5.7595 0.55478,0 3.71971,2.49233 7.03319,5.5385 6.26902,5.76329 8.02251,6.24918 7.20981,1.9978 -0.77715,-4.0654 2.15623,-4.24947 9.30325,-0.58376 3.48529,1.7876 6.87811,3.06978 7.53959,2.84928 0.66148,-0.22049 1.82205,-2.82103 2.57904,-5.77897 1.5652,-6.116 2.82445,-8.02285 5.29817,-8.02285 1.65981,0 8.48457,3.33977 21.77757,10.65709 l 6.24932,3.44003 0.90486,-2.29856 c 0.49768,-1.26421 1.53772,-4.09856 2.3112,-6.29856 1.45115,-4.12746 2.50641,-4.54946 7.47126,-2.98781 1.91064,0.60098 2.27289,0.22413 2.87627,-2.99215 0.37967,-2.02384 1.27641,-3.90462 1.99274,-4.1795 0.71633,-0.27488 3.62491,1.33604 6.46352,3.57984 2.83862,2.24379 5.75637,4.07962 6.48389,4.07962 0.72753,0 2.54902,-3.2625 4.04777,-7.25 6.16701,-16.40774 5.71489,-16.0152 14.68064,-12.74613 l 6.15861,2.24555 2.32588,-2.87471 c 3.15127,-3.89486 7.65562,-13.57928 9.70911,-20.87471 0.92887,-3.3 1.9341,-6.83602 2.23384,-7.85781 0.50072,-1.70689 0.11024,-1.79861 -4.80661,-1.12909 l -5.35161,0.72873 1.88602,-2.09996 c 1.03731,-1.15498 4.38385,-3.03451 7.43674,-4.17675 5.37407,-2.01069 5.62739,-2.01932 7.96012,-0.27095 1.32518,0.99321 3.58699,3.80326 5.02626,6.24455 2.35746,3.99875 2.42227,4.35921 0.65385,3.63655 -5.50524,-2.24971 -5.17287,-3.21042 -5.73961,16.59054 -0.50976,17.81048 -1.23969,22.42378 -4.75184,30.03259 -0.68505,1.48412 -2.1964,2.83412 -3.35855,3 -1.70474,0.24333 -2.17167,1.1077 -2.41668,4.47372 -0.16703,2.29466 -1.00607,4.75504 -1.86454,5.4675 -1.64392,1.36433 -3.39724,-0.0807 -7.48908,-6.17234 -1.26565,-1.8842 -1.76401,-2.11279 -2.10879,-0.96728 -3.40222,11.30365 -6.4968,18 -8.31835,18 -1.58999,0 -3.87346,-4.10136 -4.87648,-8.75873 -0.87401,-4.05828 -2.16038,-3.35259 -4.80829,2.63778 -1.12343,2.54152 -3.77312,6.19595 -5.88821,8.12095 -3.04969,2.7756 -4.1718,4.80947 -5.4216,9.82684 -2.17545,8.73343 -1.68356,9.59691 5.01827,8.80925 2.969,-0.34895 7.12227,-1.19769 9.22947,-1.88609 z m -96.41871,-53.3889 c -0.6875,-0.29027 -1.25,-1.3575 -1.25,-2.37163 0,-1.01412 -1.5174,-3.11412 -3.37199,-4.66667 -1.85459,-1.55254 -4.11615,-4.2853 -5.02568,-6.0728 -1.03636,-2.03675 -2.40243,-3.25 -3.65939,-3.25 -2.46088,0 -3.7538,-2.87295 -1.83866,-4.08561 0.76765,-0.48607 3.05939,-0.89066 5.09276,-0.89908 2.92637,-0.0121 5.11516,1.06622 10.5,5.17296 3.74163,2.85355 9.48402,6.17173 12.76087,7.37372 7.45158,2.73335 8.29468,4.43801 2.19497,4.43801 -3.91961,0 -4.55584,0.29618 -4.83333,2.25 -0.27229,1.91721 -0.98513,2.27876 -4.81955,2.44443 -2.475,0.10693 -5.0625,-0.0431 -5.75,-0.33333 z m 8.35009,-6.52305 c 0.92502,-1.49672 -3.16583,-4.83805 -5.92331,-4.83805 -1.15591,0 -3.0591,-1.20076 -4.22932,-2.66835 -2.3586,-2.95796 -5.44746,-2.69563 -5.44746,0.46265 0,4.88272 13.24078,10.86119 15.60009,7.04375 z m 53.16302,0.23413 c -1.85521,-2.64868 -8.31191,-4.86864 -12.76311,-4.38823 -4.1412,0.44694 -6.5332,-0.85206 -5.6771,-3.08303 0.43667,-1.13794 1.90874,-1.60092 5.09023,-1.60092 4.13773,0 4.80121,-0.38017 8.78139,-5.03167 5.43527,-6.35203 21.37672,-20.31934 29.51877,-25.86326 7.01104,-4.77383 16.50649,-8.48748 19.37433,-7.57726 3.49088,1.10796 2.02838,3.53095 -3.64594,6.0404 -8.59133,3.79949 -11.36353,6.33043 -14.50345,13.24123 -1.57669,3.4702 -4.92481,9.25359 -7.44027,12.85199 -3.38103,4.8366 -4.29846,6.87402 -3.51851,7.81381 1.58841,1.91392 0.34227,3.97926 -3.77577,6.25793 -5.9828,3.31052 -9.75078,3.75153 -11.44057,1.33901 z m 12.50541,-10.32858 c 8.03403,-8.06615 13.99661,-20.07855 11.76148,-23.69505 -0.70253,-1.13672 -1.39551,-1.20304 -3.3353,-0.31922 -4.54482,2.07076 -9.6947,7.35095 -9.6947,9.94 0,4.08246 -1.68072,6.024 -5.78253,6.6799 -2.89639,0.46316 -4.64633,1.60095 -7.03632,4.57498 -3.75695,4.67501 -4.00401,6.80949 -0.93115,8.04463 5.70954,2.29495 8.49276,1.32662 15.01852,-5.22524 z m -43.26826,-6.9737 c -2.53688,-2.72302 -3.23794,-5.28078 -2.81985,-10.28792 0.38504,-4.6112 2.51061,-5.76254 3.32866,-1.80302 0.32056,1.55157 1.44995,5.02127 2.50975,7.71044 2.63399,6.68356 1.14294,8.84735 -3.01856,4.3805 z m 54.53938,-90.11726 c -1.0489,-0.76697 -1.41739,-1.61016 -0.85545,-1.95746 1.40326,-0.86726 6.60841,0.68263 7.08398,2.10934 0.54707,1.6412 -3.92549,1.53214 -6.22853,-0.15188 z m -125.37807,112.34736 c 3.88042,-0.44721 4.32272,-0.76393 4.18957,-3 -0.18383,-3.08733 -3.95446,-16.93665 -4.85689,-17.83908 -0.36235,-0.36235 -2.30928,1.26018 -4.32653,3.60562 -4.21694,4.903 -5.16772,5.22193 -5.16772,1.73346 0,-3.02198 -0.40973,-3.09027 -3,-0.5 -1.1,1.1 -2.675,2 -3.5,2 -0.99906,0 -1.5,0.99906 -1.5,2.99153 0,1.90852 -0.72405,3.4437 -2,4.24054 -3.12996,1.95469 -2.43162,2.57211 3.75,3.31549 6.55543,0.78833 9.23444,2.62256 9.28544,6.35743 l 0.0354,2.59501 1.37614,-2.5 c 1.04779,-1.9035 2.41128,-2.6193 5.71456,-3 z m 84.83843,-111.05902 c 0,-0.58246 0.45,-0.7809 1,-0.44098 0.55,0.33992 1,0.81648 1,1.05902 0,0.24254 -0.45,0.44098 -1,0.44098 -0.55,0 -1,-0.47656 -1,-1.05902 z m -21.25,-5.93002 c 4.35456,-2.65502 4.09363,-4.53029 -1,-7.18702 -2.78502,-1.4526 -3.68935,-2.33843 -2.62353,-2.56986 1.65372,-0.35907 9.55126,4.44776 11.84147,7.20728 1.40396,1.69168 1.44459,1.66584 -5.46794,3.47854 -5.79011,1.51838 -6.41672,1.30671 -2.75,-0.92894 z m 16.80887,-7.54276 c -1.65076,-1.24857 -1.69398,-1.4682 -0.28895,-1.4682 0.90869,0 2.55947,-0.97388 3.6684,-2.16417 l 2.01624,-2.16418 -0.97728,3.40758 c -0.5375,1.87416 -0.97728,3.52304 -0.97728,3.66417 0,0.67441 -1.69297,0.047 -3.44113,-1.2752 z m 12.10554,-4.28248 c 0.48196,-4.06939 0.28488,-4.9912 -1.18791,-5.55637 -1.06545,-0.40885 -2.50157,-0.0117 -3.62112,1.00153 -1.03628,0.93782 -1.85538,1.18473 -1.85538,0.55929 0,-1.69399 3.75753,-3.35287 6.79945,-3.00182 2.02191,0.23333 2.78115,0.9399 3.02129,2.81165 0.17641,1.375 0.97194,3.00548 1.76785,3.62329 1.22466,0.95063 1.0985,1.34603 -0.82074,2.57225 -4.82274,3.0813 -4.71279,3.13516 -4.10344,-2.00982 z"
           style="fill:#9e2520" />
        <path
           sodipodi:nodetypes="sssssssssssssssssssssscssscssssssscssssssscssssssssscsssssssssssssssssscsccsssssssssssssssssssscssssssssscsssssssscsssssssssssssscssssssssssssssssssssssssssssssssssssscssssssssssssssssssssssssssssssscsssssscscssscssssssssscssccccsssssssccsssssscsscsssssssscscccssssscscsssssssscsssscsssssssssssssssssssssssssssssccsssscssssscsssssssssssssssssscsscsscsscssssss"
           inkscape:connector-curvature="0"
           id="path5295"
           d="m -354.91525,901.33532 c -0.71135,-1.14242 -2.45106,-1.76449 -5.12204,-1.8315 -5.13694,-0.12888 -9.30072,-2.7747 -9.30072,-5.91002 0,-1.30061 1.6266,-4.72939 3.61466,-7.61953 1.98807,-2.89014 3.57057,-6.20314 3.51668,-7.36221 -0.0539,-1.15908 -0.44299,-6.73365 -0.86466,-12.38793 -0.76376,-10.24129 -0.78003,-10.29054 -4.26668,-12.91041 -6.58151,-4.94535 -16.15395,-15.80406 -22.75186,-25.80908 -3.62704,-5.5 -7.27766,-10.5625 -8.1125,-11.25 -2.96795,-2.44413 -5.8821,-1.47342 -8.2558,2.75 -3.17813,5.65473 -7.87984,5.01178 -7.87984,-1.07756 0,-3.68406 -1.44982,-4.59589 -9.51865,-5.98657 -12.39757,-2.13674 -14.15401,-3.63636 -7.82166,-6.678 5.07086,-2.43571 6.25306,-4.59181 3.92699,-7.16209 -2.91014,-3.21567 -1.40156,-4.94689 4.61119,-5.29171 4.38164,-0.25128 5.4735,-0.69469 6.28926,-2.55407 1.03316,-2.35492 2.9592,-2.95488 4.01287,-1.25 1.28501,2.07919 3.42854,0.83833 6.90079,-3.9948 1.97362,-2.74713 4.03986,-7.00926 4.59163,-9.47139 3.80729,-16.9889 13.20639,-31.41872 35.31942,-54.22358 9.58949,-9.88952 10.85878,-12.31023 6.45483,-12.31023 -2.09011,0 -2.08726,-0.0298 0.23917,-2.50621 2.28894,-2.43647 12.19173,-8.53419 13.72901,-8.45375 0.42083,0.022 -0.5002,0.72598 -2.04673,1.56436 -4.45933,2.4174 -2.73217,3.8309 5.61571,4.59589 4.20304,0.38516 8.64003,1.23448 9.85998,1.88738 l 2.21809,1.18708 -2.56659,2.20769 c -1.86935,1.60795 -3.43583,2.0801 -5.76638,1.73805 -2.28281,-0.33505 -2.8916,-0.77782 -2.12436,-1.54506 1.82956,-1.82956 1.18947,-3.67543 -1.27453,-3.67543 -2.79826,0 -8.14845,3.74964 -19.65004,13.77157 -11.02605,9.60757 -16.96305,16.0335 -23.13275,25.03782 -10.68562,15.59503 -15.51798,31.2697 -14.64205,47.49418 l 0.4965,9.19643 -1.61085,-5.70097 c -2.25458,-7.97919 -3.21465,-8.64949 -6.8371,-4.77348 -2.71213,2.90197 -3.16824,3.06168 -5.21835,1.82718 -2.01286,-1.21207 -2.40518,-1.11876 -3.7729,0.89727 -1.09288,1.61092 -2.51632,2.25 -5.01146,2.25 -2.92685,0 -3.36963,0.28028 -2.76458,1.75 1.8465,4.48525 1.69948,5.22475 -1.38815,6.98224 -1.70812,0.97227 -3.10851,2.27401 -3.11199,2.89276 -0.007,1.24158 4.49213,2.375 9.42755,2.375 4.30801,0 6.3941,1.82776 6.76016,5.92299 0.41539,4.64709 2.13679,4.87636 4.64862,0.61913 1.75143,-2.96846 2.64896,-3.54212 5.54184,-3.54212 1.89856,0 4.14133,-0.26455 4.98392,-0.58788 1.13375,-0.43506 2.28824,1.08 4.44121,5.82828 6.30955,13.9154 17.08679,27.17756 27.93892,34.38079 4.08261,2.70988 5.21539,3.97747 4.67203,5.22801 -2.35937,5.43011 -2.75329,11.1374 -1.1618,16.83267 l 1.62582,5.81813 -3.02123,3.12905 c -3.74923,3.88303 -4.93526,10.15619 -2.39958,12.69187 1.84711,1.84711 6.06288,2.25398 7.03622,0.67908 1.06824,-1.72844 3.66415,-1.08829 4.22094,1.04089 0.78909,3.01747 2.43026,1.88764 3.76585,-2.59251 0.64739,-2.17161 1.9277,-5.38853 2.84514,-7.14872 0.91744,-1.76019 1.66807,-4.52607 1.66807,-6.14641 0,-2.17358 0.98328,-3.77806 3.75,-6.11908 2.0625,-1.74516 4.71343,-4.04178 5.89095,-5.1036 2.64411,-2.3843 9.35905,-2.69322 9.35905,-0.43057 0,0.97673 -0.97825,1.5 -2.80422,1.5 -3.80363,0 -11.97861,5.34644 -13.36644,8.74166 -0.62012,1.51709 -2.57257,7.03334 -4.33876,12.25834 -2.41331,7.13941 -3.68081,9.56966 -5.10092,9.78035 -1.03931,0.15419 -2.37442,-0.49816 -2.9669,-1.44967 z m 159.04445,-18.2908 c -8.64145,-12.33227 -9.95144,-13.37794 -18.56438,-14.81868 -4.07155,-0.68107 -11.51524,-2.64063 -16.54152,-4.35456 l -9.1387,-3.11625 -6.19761,2.37481 c -3.40869,1.30614 -6.59128,3.10002 -7.07242,3.9864 3.39294,-5.78828 -18.71118,1.87672 -4.74194,0.89541 -0.94085,0.004 -5.45165,0.90385 -10.02399,2 -4.57234,1.09614 -9.60828,1.99299 -11.19098,1.99299 -1.5827,0 -3.15575,0.45 -3.49567,1 -0.33992,0.55 -1.10362,1 -1.69711,1 -0.72945,0 -0.86385,-2.10073 -0.41481,-6.48364 0.89892,-8.77394 2.55881,-13.02611 1.9582,-5.01636 -0.65733,8.76632 -0.16289,9.15075 9.31206,7.24023 10.75353,-2.16833 13.34166,-3.27707 13.34166,-5.71548 0,-2.12957 1.44988,-2.72388 2.5,-1.02475 0.33992,0.55 1.41388,1 2.38657,1 2.87101,0 20.156,-7.866 25.07477,-11.41094 6.78752,-4.89175 7.43158,-5.19176 6.1982,-2.88716 -0.572,1.06879 -2.8669,3.2093 -5.09977,4.75668 -2.23287,1.54738 -4.05977,3.60437 -4.05977,4.57108 0,2.46646 10.73997,6.53702 19.24447,7.29385 3.70946,0.33012 7.63751,1.07815 8.729,1.66229 1.09149,0.58415 3.85706,3.86381 6.14571,7.28814 4.43469,6.63531 8.77674,11.72606 10.00149,11.72606 0.41057,0 0.88888,-1.2375 1.06291,-2.75 0.28261,-2.45617 0.79724,-2.80342 4.81642,-3.25 l 4.5,-0.5 0.31465,-4.39628 c 0.28708,-4.01117 -0.0633,-4.78766 -4,-8.86421 -2.37306,-2.45736 -5.71196,-5.07033 -7.41978,-5.80661 -2.7051,-1.16622 -3.17849,-1.95808 -3.67456,-6.14665 -0.8677,-7.32638 -4.36245,-15.59812 -8.64617,-20.46468 -3.78845,-4.3039 -3.83057,-4.43865 -2.29882,-7.35291 5.32218,-10.12576 9.22468,-24.30007 9.22468,-33.50503 0,-5.58805 -0.1684,-5.99935 -3.07076,-7.50022 -2.66151,-1.37632 -2.89914,-1.81289 -1.78297,-3.27568 0.70829,-0.92825 1.34604,-1.80614 1.41722,-1.95086 0.0712,-0.14472 1.88602,0.47298 4.03297,1.37265 2.14695,0.89968 8.23205,1.97776 13.52246,2.39574 5.2904,0.41797 10.9154,1.38214 12.5,2.1426 2.43117,1.16673 2.83027,1.88778 2.55571,4.61739 -0.44076,4.38202 2.31727,4.37194 4.17393,-0.0153 3.37735,-7.98048 11.21712,-9.95548 24.90144,-6.27318 3.1586,0.84995 3.35497,0.37612 1.20437,-2.90611 -2.06323,-3.14889 -0.94707,-7.43289 2.25362,-8.64979 2.98406,-1.13453 2.53354,-3.29266 -0.78632,-3.76674 -3.58556,-0.51197 -4.92167,-2.02589 -4.92167,-5.57657 0,-3.84322 -1.67205,-5.82344 -3.90712,-4.62727 -0.8804,0.47118 -5.45884,0.55669 -10.1743,0.19003 -8.31699,-0.6467 -8.72088,-0.79666 -13.49607,-5.01099 -5.7488,-5.07357 -20.74278,-12.94879 -27.92251,-14.66562 -3.28257,-0.78493 -4.88988,-1.65789 -4.6794,-2.54145 0.49517,-2.07868 -2.80056,-3.92226 -7.01173,-3.92226 -4.18719,0 -4.56639,-0.50547 -2.27698,-3.03524 1.39932,-1.54623 1.00394,-2.28864 -4.56871,-8.57874 -17.62235,-19.89115 -35.39476,-30.58308 -58.74607,-35.34177 -11.06735,-2.25539 -18.7784,-2.57153 -24.43098,-1.00165 -4.97799,1.38254 -5.54434,2.69903 -2.411,5.60442 1.69361,1.57041 2.62487,3.48391 2.62487,5.39345 0,3.26488 -0.93515,3.53651 -5.4898,1.5946 l -2.9898,-1.27472 2.75729,-1.80664 c 2.16804,-1.42056 2.51367,-2.10018 1.61735,-3.18018 -0.62696,-0.75544 -1.95827,-1.37353 -2.95847,-1.37353 -2.68995,0 -3.40365,-1.93706 -1.28671,-3.49229 1.01758,-0.74757 1.85014,-2.37057 1.85014,-3.60666 0,-3.41094 5.1245,-4.52343 8.70951,-1.89078 2.09047,1.53514 4.29595,1.98973 9.65332,1.98973 3.81909,0 11.22657,0.86154 16.46106,1.91452 24.9031,5.0096 45.86888,18.84102 60.6916,40.03912 2.98999,4.27601 5.40238,6.657 7.23871,7.14448 1.51481,0.40214 4.13683,1.89457 5.82672,3.31652 1.68989,1.42195 4.0505,2.58976 5.24581,2.59513 3.87375,0.0174 12.08908,4.56353 20.24841,11.20488 7.00439,5.70127 8.74429,6.62792 14.27346,7.60186 5.25215,0.92515 6.95011,0.84772 10.23533,-0.46677 4.9522,-1.98148 7.40468,-0.54277 6.52998,3.8307 -0.65213,3.26065 0.21555,4.23559 6.38609,7.17554 6.02674,2.87144 6.63992,6.06087 1.57228,8.17827 -1.96475,0.82092 -3.57228,1.75307 -3.57228,2.07144 0,0.31837 0.9,1.72302 2,3.12144 4.43269,5.63525 1.48744,8.23422 -6.56367,5.79194 -5.67161,-1.72047 -12.1741,-1.94947 -15.83483,-0.55766 -1.54689,0.58813 -3.50549,2.88901 -5.04448,5.92607 -2.70004,5.32826 -5.26565,6.87401 -8.51925,5.13274 -1.51963,-0.81329 -2.03777,-2.08976 -2.03777,-5.02022 0,-4.94598 -1.11774,-5.56446 -11.72502,-6.48778 -9.65523,-0.84045 -8.97555,-1.5945 -11.70671,12.98778 -0.9271,4.95 -3.27532,12.6 -5.21828,17 -6.33254,14.34061 -6.11239,12.86765 -2.5326,16.9448 4.11323,4.68471 7.81197,12.03464 9.69569,19.26674 1.12911,4.33495 2.293,6.35369 4.74167,8.22433 7.91748,6.04849 10.7459,9.65871 10.73051,13.69648 -0.0222,5.81934 -1.91869,8.77831 -6.00408,9.36765 -2.91705,0.4208 -3.54747,0.97519 -3.98005,3.5 -0.36264,2.11664 -1.15541,3.09158 -2.69231,3.311 -1.73371,0.24752 -3.33425,-1.33862 -7.84161,-7.77112 z m -142.46721,-27.58345 -2.5,-1.47269 2.76299,0.6198 c 1.6154,0.36237 3.3806,0.10722 4.25,-0.61432 1.23658,-1.02627 1.48701,-0.87666 1.48701,0.88834 0,2.51415 -2.33269,2.73921 -6,0.57887 z m 13.98915,-1.96951 c -1.55343,-1.87176 -0.84151,-2.76008 1.85749,-2.31772 1.74248,0.28559 1.84056,0.57151 0.71751,2.09189 -1.16174,1.57275 -1.43711,1.59691 -2.575,0.22583 z m 46.01085,-4.76696 c 0,-0.18227 1.125,-1.85625 2.5,-3.71996 1.375,-1.86371 2.5,-3.73958 2.5,-4.1686 0,-1.98185 -6.49813,-4.03799 -11.3025,-3.57636 -3.84623,0.36958 -4.54426,0.23781 -3.08439,-0.58223 2.12245,-1.19224 11.82945,-1.4261 14.88689,-0.35866 1.62582,0.56762 2.50984,-0.1489 4.72512,-3.82979 4.29458,-7.13584 8.48148,-7.02875 7.16253,0.1832 -0.31862,1.74216 -0.13008,3.97028 0.41897,4.95137 0.86827,1.55151 1.2063,1.2859 2.59582,-2.03969 0.87866,-2.10292 1.6037,-5.45603 1.61121,-7.45136 0.0308,-8.18084 2.63214,-10.64731 5.46067,-5.17754 1.90157,3.67723 1.8967,3.85916 -0.0987,3.68855 -1.19264,-0.10197 -2.12861,1.67941 -3.52139,6.70213 -1.04334,3.76257 -2.61824,8.23577 -3.49976,9.94045 -1.53293,2.96435 -1.66377,3.01599 -3.0026,1.18503 -0.76991,-1.05291 -1.67019,-3.60511 -2.00063,-5.67156 -0.63207,-3.95277 -2.57728,-6.3913 -4.26585,-5.3477 -0.55123,0.34068 -1.99005,3.3286 -3.19739,6.63983 -1.60778,4.40949 -2.95679,6.41427 -5.04157,7.49235 -1.56554,0.80957 -2.84643,1.32281 -2.84643,1.14054 z m -37.20918,-5.74124 c 2.00506,-4.05148 2.72825,-4.80258 3.42514,-3.5573 0.48588,0.86822 1.64856,1.5966 2.58373,1.61862 1.08833,0.0256 0.62055,0.60927 -1.29969,1.62159 -1.65,0.86986 -3.95645,2.45263 -5.12545,3.51727 -1.9793,1.80261 -1.95068,1.58257 0.41627,-3.20018 z m 12.70918,-0.55653 c -4.44856,-2.65722 -4.0692,-2.97262 1.55037,-1.28895 3.34441,1.00201 4.22632,0.86726 7.61602,-1.16365 l 3.83361,-2.29688 -4,3.62202 c -2.2,1.99211 -4.225,3.59833 -4.5,3.56938 -0.275,-0.029 -2.3,-1.12781 -4.5,-2.44192 z m -50.95347,-2.67219 c -0.21489,-0.6875 -0.67116,-2.9375 -1.01393,-5 -0.52796,-3.17675 -0.34878,-3.7466 1.17209,-3.72776 0.98742,0.0122 2.91737,0.88431 4.28878,1.93795 2.21778,1.7039 2.3007,1.98969 0.75,2.58475 -0.98586,0.37832 -1.74347,1.70889 -1.74347,3.06205 0,2.52051 -2.73951,3.42722 -3.45347,1.14301 z m 48.95347,-1.75 c -0.33992,-0.55 0.11008,-1 1,-1 0.88992,0 1.33992,0.45 1,1 -0.33992,0.55 -0.78992,1 -1,1 -0.21008,0 -0.66008,-0.45 -1,-1 z m -9.16139,-3.55999 c -0.87357,-2.27647 0.4899,-3.04007 2.26274,-1.26723 1.40498,1.40498 1.39907,1.61308 -0.0617,2.17362 -0.97076,0.37251 -1.84912,0.0108 -2.20108,-0.90639 z m 68.99855,-0.004 c -0.33005,-0.86007 -0.0909,-2.68125 0.53138,-4.04705 0.6223,-1.36559 1.13146,-4.03689 1.13146,-5.93601 0,-3.15455 0.25416,-3.45295 2.94098,-3.45295 1.61754,0 3.15187,-0.34121 3.40961,-0.75825 0.25774,-0.41703 1.20359,-4.31646 2.10189,-8.6654 2.24265,-10.85736 3.83066,-13.05549 3.15314,-4.36458 -0.7143,9.16273 -4.29932,18.0184 -7.60562,18.78732 -2.16984,0.50462 -2.54025,1.20339 -2.80479,5.29115 -0.30105,4.65198 -1.69244,6.18354 -2.85805,3.14599 z m -48.83716,-6.43601 c -1.76328,-1.9484 -1.74663,-2 0.64501,-2 1.35025,0 2.99499,-0.54 3.65499,-1.2 0.93333,-0.93333 1.2,-0.8381 1.2,0.42857 0,1.34803 -2.45123,4.77143 -3.41644,4.77143 -0.15047,0 -1.08807,-0.9 -2.08356,-2 z m 18.72917,-0.1875 c 0.2177,-0.65313 0.93051,-1.36573 1.58401,-1.58356 0.73075,-0.24358 0.95424,0.21359 0.58051,1.1875 -0.69752,1.81771 -2.76448,2.19592 -2.16452,0.39606 z m 2.77083,-3.57662 c 0,-0.42026 0.93264,-3.23276 2.07252,-6.25 1.13989,-3.01723 2.549,-6.83588 3.13135,-8.48588 1.72962,-4.90058 2.83981,-5.60284 7.02891,-4.44617 2.03222,0.56112 3.99257,1.50177 4.35632,2.09033 0.41726,0.67515 -0.0308,0.86355 -1.21387,0.51046 -7.07156,-2.11044 -7.01834,-2.12904 -8.28315,2.894 -1.67443,6.64976 -7.09208,17.10548 -7.09208,13.68726 z m -15.92105,-4.81921 c 0.048,-1.16495 0.28494,-1.4019 0.60416,-0.60417 0.28887,0.72187 0.25335,1.58438 -0.0789,1.91667 -0.3323,0.33229 -0.56864,-0.25834 -0.52522,-1.3125 z m -71.07895,-7.41667 c 0,-0.55 0.64844,-1 1.44098,-1 0.79254,0 1.7191,0.45 2.05902,1 0.33992,0.55 -0.30852,1 -1.44098,1 -1.13246,0 -2.05902,-0.45 -2.05902,-1 z m 58.42576,-6.6868 c -0.5852,-0.92775 -3.18675,-2.39693 -5.78121,-3.26484 l -4.71721,-1.57804 10.28633,-10.48516 c 9.65475,-9.84137 10.30547,-10.31935 10.59798,-7.78461 0.4838,4.1923 -1.29126,6.46062 -5.59418,7.14868 -2.91455,0.46606 -4.64801,1.60304 -7.10458,4.65992 -4.2649,5.3071 -3.79741,7.08937 2.31215,8.81495 4.35469,1.22994 5.30044,1.20037 8.36614,-0.26156 3.58725,-1.71064 4.92996,-1.53839 3.68688,0.47296 -0.8857,1.43309 -6.76075,3.9645 -9.20106,3.9645 -0.98297,0 -2.26603,-0.75906 -2.85124,-1.6868 z m -63.8338,-5.8132 c -1.89158,-2.88691 -4.08646,-3.2257 -5.42318,-0.83711 -0.83461,1.49136 -0.99673,1.45454 -1.57169,-0.357 -0.3526,-1.11094 -1.64369,-2.50379 -2.86909,-3.09521 -2.01674,-0.97336 -1.8658,-1.08174 1.59182,-1.143 2.68915,-0.0477 5.11607,0.82416 8.19898,2.94526 5.25658,3.61662 6.26104,4.98706 3.65523,4.98706 -1.06921,0 -2.68114,-1.125 -3.58207,-2.5 z m 31.98178,-13.35741 c -1.77537,-3.43318 -1.91117,-4.14259 -0.79298,-4.14259 0.88552,0 3.40381,6.14876 2.77559,6.77699 -0.22488,0.22488 -1.11706,-0.9606 -1.98261,-2.6344 z m 96.92289,-10.61426 c 0.27851,-6.93314 0.3196,-7.02833 3.03387,-7.02833 3.09864,0 5.78607,3.04673 3.78841,4.29489 -0.6496,0.40588 -1.3246,2.71854 -1.5,5.13925 -0.2882,3.97739 -0.57345,4.41194 -2.96176,4.5119 -2.64225,0.1106 -2.64279,0.109 -2.36052,-6.91771 z m -41.10632,1.46336 c 0.69781,-3.32461 -0.69753,-5.45409 -3.03939,-4.63854 -1.13021,0.39359 -0.68278,-0.36155 1.14908,-1.93936 3.55704,-3.06372 16.18582,-9.41379 18.72179,-9.41379 3.02343,0 1.96566,1.8952 -1.97179,3.53285 -6.41767,2.66922 -11.48999,6.79545 -13.47724,10.96345 -1.17883,2.47244 -1.70756,3.04437 -1.38245,1.49539 z m -53.39031,-56.55071 c 0,-0.85746 0.45,-1.2809 1,-0.94098 0.55,0.33992 1,1.04148 1,1.55902 0,0.51754 -0.45,0.94098 -1,0.94098 -0.55,0 -1,-0.70156 -1,-1.55902 z m 23.67443,-1.84702 c -0.29675,-0.77333 0.3301,-2.19307 1.39301,-3.15499 1.87128,-1.69349 1.93256,-1.6489 1.93256,1.40604 0,3.26796 -2.28212,4.46814 -3.32557,1.74895 z m -34.66946,-0.34396 c 0.009,-1.41265 4.92305,-6.75205 4.95907,-5.38871 0.0267,1.01228 0.93665,1.19232 3.54902,0.70224 2.70787,-0.508 3.65297,-0.29443 4.12354,0.93184 0.79591,2.07412 -0.35384,3.18739 -1.79916,1.74207 -0.83897,-0.83897 -2.10965,-0.62905 -4.9435,0.81667 -4.02837,2.05512 -5.89718,2.43462 -5.88897,1.19589 z m 23.49503,-7.25 c 0.33992,-0.55 1.37898,-0.99311 2.30902,-0.98469 1.45727,0.0132 1.48367,0.14929 0.19098,0.98469 -1.95837,1.2656 -3.28218,1.2656 -2.5,0 z m 11.15066,-3.46797 c -0.30982,-0.80739 -0.13297,-1.73395 0.39301,-2.05902 0.52598,-0.32508 0.95633,0.33551 0.95633,1.46797 0,2.41457 -0.55611,2.65816 -1.34934,0.59105 z m 14.84934,-0.18614 c -5.2336,-1.58558 -9.0654,-4.11873 -4.58833,-3.03327 1.32642,0.32158 3.25702,0.13228 4.29022,-0.42067 1.42345,-0.7618 2.7167,-0.48735 5.33832,1.1329 6.33653,3.91619 3.91132,5.03301 -5.04021,2.32104 z m -26.5,-6.40491 c 0,-0.58246 0.45,-0.7809 1,-0.44098 0.55,0.33992 1,0.81648 1,1.05902 0,0.24254 -0.45,0.44098 -1,0.44098 -0.55,0 -1,-0.47656 -1,-1.05902 z m -21.25,-5.93002 c 4.35456,-2.65502 4.09363,-4.53029 -1,-7.18702 -2.78502,-1.4526 -3.68935,-2.33843 -2.62353,-2.56986 1.65372,-0.35907 9.55126,4.44776 11.84147,7.20728 1.40396,1.69168 1.44459,1.66584 -5.46794,3.47854 -5.79011,1.51838 -6.41672,1.30671 -2.75,-0.92894 z m 16.80887,-7.54276 c -1.65076,-1.24857 -1.69398,-1.4682 -0.28895,-1.4682 0.90869,0 2.55947,-0.97388 3.6684,-2.16417 l 2.01624,-2.16418 -0.97728,3.40758 c -0.5375,1.87416 -0.97728,3.52304 -0.97728,3.66417 0,0.67441 -1.69297,0.047 -3.44113,-1.2752 z m 12.10554,-4.28248 c 0.48196,-4.06939 0.28488,-4.9912 -1.18791,-5.55637 -1.06545,-0.40885 -2.50157,-0.0117 -3.62112,1.00153 -1.03628,0.93782 -1.85538,1.18473 -1.85538,0.55929 0,-1.69399 3.75753,-3.35287 6.79945,-3.00182 2.02191,0.23333 2.78115,0.9399 3.02129,2.81165 0.17641,1.375 0.97194,3.00548 1.76785,3.62329 1.22466,0.95063 1.0985,1.34603 -0.82074,2.57225 -4.82274,3.0813 -4.71279,3.13516 -4.10344,-2.00982 z"
           style="fill:#000000;fill-opacity:1" />
      </g>
    </g>
  </g>
</svg>
