<?xml version="1.0" encoding="UTF-8" standalone="no"?>
<!-- Created with Inkscape (http://www.inkscape.org/) -->

<svg
   xmlns:dc="http://purl.org/dc/elements/1.1/"
   xmlns:cc="http://creativecommons.org/ns#"
   xmlns:rdf="http://www.w3.org/1999/02/22-rdf-syntax-ns#"
   xmlns:svg="http://www.w3.org/2000/svg"
   xmlns="http://www.w3.org/2000/svg"
   xmlns:sodipodi="http://sodipodi.sourceforge.net/DTD/sodipodi-0.dtd"
   xmlns:inkscape="http://www.inkscape.org/namespaces/inkscape"
   width="150"
   height="150"
   id="svg3315"
   version="1.1"
   inkscape:version="0.48.5 r10040"
   sodipodi:docname="Muñeco1.svg">
  <defs
     id="defs3317" />
  <sodipodi:namedview
     id="base"
     pagecolor="#ffffff"
     bordercolor="#666666"
     borderopacity="1.0"
     inkscape:pageopacity="0.0"
     inkscape:pageshadow="2"
     inkscape:zoom="2.8"
     inkscape:cx="84.163848"
     inkscape:cy="71.820334"
     inkscape:document-units="px"
     inkscape:current-layer="layer1"
     showgrid="false"
     inkscape:window-width="1920"
     inkscape:window-height="1003"
     inkscape:window-x="0"
     inkscape:window-y="23"
     inkscape:window-maximized="1"
     showguides="true"
     inkscape:guide-bbox="true">
    <sodipodi:guide
       orientation="1,0"
       position="75,202.5"
       id="guide3785" />
    <sodipodi:guide
       orientation="0,1"
       position="88.928571,75"
       id="guide3787" />
    <sodipodi:guide
       orientation="1,0"
       position="11.071429,168.57143"
       id="guide3789" />
    <sodipodi:guide
       orientation="1,0"
       position="138.57143,160.71429"
       id="guide3791" />
    <sodipodi:guide
       orientation="0,1"
       position="-105.35714,124.28571"
       id="guide3793" />
    <sodipodi:guide
       orientation="0,1"
       position="-35.714286,18.928571"
       id="guide3795" />
  </sodipodi:namedview>
  <metadata
     id="metadata3320">
    <rdf:RDF>
      <cc:Work
         rdf:about="">
        <dc:format>image/svg+xml</dc:format>
        <dc:type
           rdf:resource="http://purl.org/dc/dcmitype/StillImage" />
        <dc:title></dc:title>
      </cc:Work>
    </rdf:RDF>
  </metadata>
  <g
     inkscape:label="Capa 1"
     inkscape:groupmode="layer"
     id="layer1"
     transform="translate(0,-902.36218)">
    <g
       style="display:inline"
       id="g5427"
       transform="matrix(0.30196063,0,0,0.30196063,-55.274443,919.55829)"
       inkscape:export-filename="/home/nerviozzo/grive/1 - HTML/2 - Javascript/images/Tomate2.png"
       inkscape:export-xdpi="300"
       inkscape:export-ydpi="300">
      <path
         d="m 630.00002,137.14285 c 0,35.50402 -65.55831,64.28572 -146.42858,64.28572 -80.87027,0 -146.42857,-28.7817 -146.42857,-64.28572 0,-35.50402 65.5583,-64.28571 146.42857,-64.28571 80.87027,0 146.42858,28.78169 146.42858,64.28571 z"
         sodipodi:ry="64.285713"
         sodipodi:rx="146.42857"
         sodipodi:cy="137.14285"
         sodipodi:cx="483.57144"
         id="path5382"
         style="fill:#ffffff;fill-opacity:1;fill-rule:nonzero;stroke:none"
         sodipodi:type="arc"
         transform="translate(-68.751198,36.028118)" />
      <g
         transform="translate(-548.7512,-602.04834)"
         id="g5353">
        <path
           inkscape:connector-curvature="0"
           id="path5367"
           d="m 992.48987,977.74511 c -3.3,-0.7119 -11.14358,-2.78246 -17.43019,-4.60124 -11.39878,-3.29779 -11.4661,-3.30443 -24.5,-2.41684 -38.46212,2.61922 -58.46015,-0.54253 -83.83581,-13.25469 -17.58192,-8.80783 -48.27755,-31.18321 -63.43943,-46.24378 -14.72644,-14.62802 -21.22699,-26.91075 -27.77964,-52.48931 -4.82541,-18.83619 -6.51493,-31.88717 -6.51493,-50.32563 0,-24.09537 4.86893,-47.60941 18.2831,-88.29655 14.9027,-45.20206 28.01223,-60.64873 64.74745,-76.29047 30.09727,-12.81531 47.64665,-15.02186 81.97675,-10.30721 30.8233,4.23305 28.64575,4.24171 32.79401,-0.1305 2.14718,-2.2631 3.2582,-2.97182 2.77757,-1.77182 -1.90388,4.75344 -1.54666,5.0167 6.42112,4.73224 4.125,-0.14727 13.68845,-1.36812 21.25212,-2.713 22.00221,-3.91219 37.26211,-4.8681 66.74791,-4.18126 28.414,0.66187 36.1883,1.67348 47.4329,6.17204 3.634,1.4538 6.9631,2.49629 7.3982,2.31663 0.435,-0.17966 2.3721,-2.12665 4.3046,-4.32665 4.6172,-5.25648 9.3907,-17.29658 9.0196,-22.75 -0.1029,-1.5125 0.2701,-2.75 0.8288,-2.75 2.3267,0 0.2131,14.05019 -3.0803,20.47644 -1.1341,2.21296 -3.4597,5.78838 -5.1681,7.94538 l -3.1061,3.92183 4.2829,3.80076 4.2829,3.80077 3.6523,-1.56645 c 2.0087,-0.86155 5.271,-2.155 7.2495,-2.87433 1.9785,-0.71934 5.4481,-2.25211 7.7102,-3.40615 4.4331,-2.26163 7.1926,-2.68849 7.1926,-1.11265 0,1.09721 -8.8886,5.74116 -16.3479,8.54113 -2.6663,1.00085 -5.0487,2.34311 -5.2942,2.9828 -0.2454,0.63969 3.6362,6.60305 8.6259,13.25191 24.2203,32.27415 40.7116,66.09561 46.6819,95.73856 1.4037,6.96962 1.7879,13.28636 1.7029,28 -0.3175,54.96704 -15.4587,99.37251 -44.2938,129.90257 -3.0661,3.24641 -10.0748,9.51071 -15.5748,13.92066 -27.1593,21.77655 -59.1258,38.00801 -88.2378,44.80405 -11.1614,2.60555 -41.4852,3.50206 -50.76223,1.50076 z M 1043.2711,817.8606 c 7.6894,-3.53991 16.8934,-12.40838 19.7733,-19.05248 3.2649,-7.53219 3.0656,-14.86236 -0.5866,-21.57269 -3.844,-7.0627 -13.1117,-14.37104 -22.9833,-18.12422 l -2.4473,-0.93045 0.598,5.72112 c 1.5339,14.67587 5.0465,5.08437 -8.5088,-2.85961 -5.0446,-2.95629 -9.5589,-7.94304 -9.5589,-10.55915 0,-1.77178 -10.1133,10.07694 -6.0692,7.2128 6.5112,-4.61137 -10.0075,-0.97604 -20.59577,4.5326 -13.73024,7.14326 -20.98019,15.97987 -21.05316,25.66071 -0.0976,12.9418 9.67827,22.0218 31.40773,29.17215 9.6509,3.17575 15.0183,3.96146 25.2428,3.69513 7.3065,-0.19032 10.0878,-0.73522 14.7812,-2.89591 z M 906.58188,800.17939 c 5.92306,-2.62005 11.8835,-8.36879 14.85077,-14.32333 4.39324,-8.8161 2.91309,-16.48445 -4.58672,-23.76277 -9.80632,-3.32863 -14.85384,-39.24936 -59.36245,0.13643 -5.82736,5.37148 -7.49361,8.56841 -7.49361,14.37753 0,8.51096 3.78964,13.4096 14.5,18.74329 15.11546,7.52741 31.69233,9.42913 42.09201,4.82885 z M 1159.8007,635.32253 c 6.8232,-5.03558 17.409,-14.82509 19.2471,-17.79922 2.1676,-3.50724 3.9421,-4.43285 3.9421,-2.05628 0,1.7201 -4.8757,8.36656 -8.6213,11.75227 -4.1155,3.72014 -13.8349,9.90577 -15.4822,9.85323 -0.8637,-0.0275 -0.5148,-0.6953 0.9143,-1.75 z"
           style="fill:#f1655e"
           sodipodi:nodetypes="sssssssssssssssscccsscccccsssscssssssssssscsssssssssssccssssssscs" />
        <path
           inkscape:connector-curvature="0"
           id="path5365"
           d="m 1003.4899,978.51335 c -7.88134,-0.77496 -16.1607,-2.59674 -26.00003,-5.721 -9.649,-3.06383 -10.47385,-3.15923 -23.5,-2.71787 -27.66638,0.93739 -44.11434,0.51102 -52.95951,-1.37284 -23.95442,-5.10186 -41.99203,-14.22465 -71.04049,-35.92979 -15.45168,-11.54557 -31.21988,-26.33946 -37.64029,-35.3145 -8.98632,-12.56193 -15.79707,-32.21499 -20.44887,-59.00716 -3.32061,-19.12511 -3.13694,-43.08354 0.46733,-60.96211 4.82373,-23.92748 16.20893,-61.94612 24.2103,-80.84548 4.15652,-9.81777 13.32704,-24.217 18.57786,-29.17031 14.99962,-14.14972 43.98288,-28.05162 69.83367,-33.49592 13.19436,-2.77879 28.10568,-2.61083 50.83702,0.57264 24.30123,3.40333 27.90708,3.38209 30.88766,-0.18194 l 2.29981,-2.75 -0.58664,2.61446 c -0.40694,1.81365 -0.12335,2.79225 0.92588,3.19487 2.00575,0.76968 15.50676,-0.68988 29.13627,-3.14984 20.33573,-3.67035 33.01743,-4.43545 64.33973,-3.88166 25.6303,0.45315 30.7838,0.80815 37.9294,2.61273 4.548,1.14858 10.0426,2.99308 12.2102,4.09888 5.0934,2.59846 5.856,2.54248 9.216,-0.67653 1.5426,-1.4779 2.8047,-2.22265 2.8047,-1.65499 0,0.56766 -0.9,1.84659 -2,2.84208 -2.6777,2.42328 -2.5427,3.1661 1.1475,6.31456 5.6547,4.82455 6.9019,5.19694 10.8274,3.23291 1.9388,-0.97002 4.8751,-2.03436 6.5251,-2.36521 2.6079,-0.52293 2.4773,-0.35254 -1,1.30387 -2.2,1.04798 -4.7875,2.11269 -5.75,2.36602 -0.9625,0.25334 -1.75,1.1259 -1.75,1.93904 0,0.81314 4.3875,7.34048 9.75,14.5052 23.0586,30.80815 38.2464,61.01739 45.0987,89.70361 2.4412,10.21974 2.6223,12.56053 2.5528,33 -0.059,17.23829 -0.5419,25.0436 -2.2333,36.06202 -6.5644,42.76328 -22.545,76.08275 -47.4784,98.99198 -28.4162,26.10932 -67.137,46.52044 -101.1898,53.34087 -9.9024,1.98333 -28.2814,3.26038 -36,2.50141 z m 40.5,-159.48244 c 7.187,-3.37942 15.8376,-11.38295 19.5357,-18.07448 3.8274,-6.92553 4.1461,-16.9878 0.7424,-23.43616 -3.1389,-5.94674 -12.6897,-14.21101 -20.9805,-18.15436 7.2632,27.29735 -43.63779,-27.03783 -70.50409,18.87571 -4.31228,8.0407 -2.82993,17.96812 3.84789,25.76964 4.44483,5.19279 20.25665,13.15834 31.8586,16.04946 11.9223,2.97097 27.9823,2.5051 35.5,-1.02981 z m 78,-19.48859 c 3.025,-2.33811 8.1805,-6.5403 11.4567,-9.33818 3.4386,-2.93659 6.9356,-5.08707 8.2723,-5.08707 1.3236,0 4.234,-1.76826 6.7933,-4.12736 3.9366,-3.62861 4.4777,-4.63448 4.4777,-8.32401 0,-5.31774 -6.9237,-33.50865 -10.8184,-44.04863 -8.6767,-23.48156 -12.6278,-31.5 -15.5215,-31.5 -0.7213,0 -2.3684,1.125 -3.6601,2.5 -1.2918,1.375 -2.9439,2.5 -3.6715,2.5 -0.7275,0 -3.0116,1.49978 -5.0757,3.33284 -2.064,1.83307 -6.3908,5.25955 -9.615,7.61441 -3.2242,2.35487 -6.5552,5.46759 -7.4022,6.91716 -0.847,1.44958 -3.7215,4.32993 -6.3878,6.40079 -2.6663,2.07087 -4.8345,4.32087 -4.8183,5 0.016,0.67914 2.2732,4.6098 5.0154,8.7348 11.8454,17.8185 17.7818,34.56371 18.6118,52.5 0.2545,5.5 0.6794,11.05212 0.9442,12.33805 0.4729,2.29666 0.5293,2.30707 3.1902,0.58818 1.4899,-0.96243 5.1839,-3.66287 8.2089,-6.00098 z m -218.24686,3.05541 c 11.37351,-3.37757 21.21939,-15.09321 21.23745,-25.2705 0.0119,-6.73009 -2.50063,-11.72864 -8.5896,-17.08837 -17.94874,-12.62581 -62.0162,-14.35737 -67.9435,14.31295 -0.84634,5.64375 2.45726,13.50014 7.19691,17.11526 12.68624,9.67626 35.14002,14.77899 48.09874,10.93066 z M 1114.4942,660.11001 c 0.3424,-0.55389 -0.1005,-1.28448 -0.9841,-1.62354 -1.9146,-0.73472 -2.9817,0.0749 -2.0613,1.56407 0.8303,1.34358 2.2349,1.37101 3.0454,0.0595 z m 59.4539,-35.31071 c 2.452,-2.57523 4.615,-4.68223 4.8067,-4.68223 0.9049,0 -2.6319,4.01271 -5.7649,6.54053 -2.9364,2.36918 -2.7821,2.06993 0.9582,-1.8583 z"
           style="fill:#e9543c"
           sodipodi:nodetypes="ssssssssssssscssssssssssssssssscsssssssccsssssssssscscssscsscssssccsscccccssss" />
        <path
           inkscape:connector-curvature="0"
           id="path5363"
           d="m 1003.4899,978.51335 c -7.88134,-0.77496 -16.1607,-2.59674 -26.00003,-5.721 -9.649,-3.06383 -10.47385,-3.15923 -23.5,-2.71787 -27.66638,0.93739 -44.11434,0.51102 -52.95951,-1.37284 -23.95442,-5.10186 -41.99203,-14.22465 -71.04049,-35.92979 -15.45168,-11.54557 -31.21988,-26.33946 -37.64029,-35.3145 -8.98632,-12.56193 -15.79707,-32.21499 -20.44887,-59.00716 -3.32061,-19.12511 -3.13694,-43.08354 0.46733,-60.96211 4.82373,-23.92748 16.20893,-61.94612 24.2103,-80.84548 4.15652,-9.81777 13.32704,-24.217 18.57786,-29.17031 14.99962,-14.14972 43.98288,-28.05162 69.83367,-33.49592 13.19436,-2.77879 28.10568,-2.61083 50.83702,0.57264 24.30123,3.40333 27.90708,3.38209 30.88766,-0.18194 l 2.29981,-2.75 -0.58664,2.61446 c -0.40694,1.81365 -0.12335,2.79225 0.92588,3.19487 2.00575,0.76968 15.50676,-0.68988 29.13627,-3.14984 20.33573,-3.67035 33.01743,-4.43545 64.33973,-3.88166 25.6303,0.45315 30.7838,0.80815 37.9294,2.61273 4.548,1.14858 10.0426,2.99308 12.2102,4.09888 5.0934,2.59846 5.856,2.54248 9.216,-0.67653 1.5426,-1.4779 2.8047,-2.22265 2.8047,-1.65499 0,0.56766 -0.9,1.84659 -2,2.84208 -2.6777,2.42328 -2.5427,3.1661 1.1475,6.31456 5.6547,4.82455 6.9019,5.19694 10.8274,3.23291 1.9388,-0.97002 4.8751,-2.03436 6.5251,-2.36521 2.6079,-0.52293 2.4773,-0.35254 -1,1.30387 -2.2,1.04798 -4.7875,2.11269 -5.75,2.36602 -0.9625,0.25334 -1.75,1.1259 -1.75,1.93904 0,0.81314 4.3875,7.34048 9.75,14.5052 23.0586,30.80815 38.2464,61.01739 45.0987,89.70361 2.4412,10.21974 2.6223,12.56053 2.5528,33 -0.059,17.23829 -0.5419,25.0436 -2.2333,36.06202 -6.5644,42.76328 -22.545,76.08275 -47.4784,98.99198 -28.4162,26.10932 -67.137,46.52044 -101.1898,53.34087 -9.9024,1.98333 -28.2814,3.26038 -36,2.50141 z m 147.3636,-76.71417 c 15.2282,-20.33527 27.3615,-52.36882 32.241,-85.12009 1.734,-11.6385 1.9956,-16.81954 1.5181,-30.06202 -0.9082,-25.18559 -3.2916,-34.34689 -15.8694,-61 -16.5048,-34.97438 -26.5794,-51.26968 -40.2533,-65.10852 -7.4836,-7.57385 -9.6555,-9.20986 -12.8906,-9.70995 -2.1398,-0.33078 -4.7491,-0.14196 -5.7984,0.41959 -1.4138,0.75668 -3.4648,0.48216 -7.922,-1.06036 -6.4178,-2.221 -7.889,-2.03956 -7.889,0.97294 0,1.99842 0.9576,2.27709 12,3.49177 6.1414,0.67556 13,4.64487 13,7.52354 0,2.42558 -2.3648,3.1082 -8.3775,2.41826 l -5.1225,-0.58779 2.6776,2.32026 c 1.4726,1.27614 3.8351,3.12877 5.25,4.11694 1.4148,0.98818 2.5724,2.49842 2.5724,3.3561 0,0.85768 1.2901,3.19917 2.8669,5.20332 1.5768,2.00414 3.812,5.50936 4.967,7.78936 1.155,2.28 6.2774,8.66044 11.3831,14.17876 11.8363,12.79299 14.1454,15.83375 12.7016,16.72606 -1.413,0.87327 -12.2593,-9.69078 -15.4524,-15.05028 -1.3107,-2.2 -3.3526,-4.59803 -4.5376,-5.32896 -1.9138,-1.18059 -2.4549,-1.04104 -4.8462,1.25 -1.4805,1.41843 -3.0777,2.57896 -3.5493,2.57896 -0.4715,0 -4.2767,-2.00463 -8.4559,-4.45473 -10.4969,-6.15392 -19.363,-9.28619 -32.7756,-11.57919 -11.1653,-1.90879 -15.3016,-1.63623 -15.3016,1.00828 0,0.4972 -1.8,2.98374 -4,5.52564 -2.2,2.5419 -4,4.95575 -4,5.36411 0,0.40836 3.7125,2.24226 8.25,4.07533 13.0091,5.25547 32.75,16.74764 32.75,19.06543 0,0.51169 -2.475,2.79898 -5.5,5.08288 -3.025,2.2839 -5.5,4.83724 -5.5,5.67409 0,0.83685 2.4429,5.39528 5.4287,10.12985 12.1779,19.31056 17.2908,33.96428 18.1812,52.10831 0.6086,12.39998 1.0483,15 2.5368,15 1.4476,0 13.9101,-9.21577 20.525,-15.17783 6.4052,-5.773 8.9495,-7.24407 9.8919,-5.71922 0.3767,0.60959 1.5504,5.89831 2.6082,11.7527 3.1159,17.24601 3.4654,47.84528 0.9236,80.86701 -2.4326,31.60355 -2.3943,30.54363 -1.0893,30.10864 0.5533,-0.18445 3.6392,-3.85159 6.8575,-8.14919 z m -106.7221,-82.38447 c 18.6941,-8.79773 27.7936,-27.62519 20.4017,-42.2124 -22.1761,-10.37719 -69.64146,-42.13341 -92.57008,1.47023 -3.14686,6.50055 -2.5094,15.42528 1.57347,22.02916 7.52355,12.16906 34.04571,22.77354 55.09491,22.02883 7.656,-0.27086 10.1748,-0.80968 15.5,-3.31582 z m -136.44503,-17.779 c 9.22722,-4.1888 16.84341,-13.66953 18.01837,-22.4295 0.89604,-6.68047 -1.36193,-11.95193 -7.83073,-18.28165 8.35041,-4.8531 -68.71189,-24.12998 -69.88414,15.48716 0,9.9714 6.74136,17.5219 20.3536,22.79657 16.08022,6.231 29.18337,7.03946 39.3429,2.42742 z m 145.38593,-107.8046 c 4.0404,-3.46391 8.334,-9.70567 7.3214,-10.64331 -0.4971,-0.46036 -2.9592,-1.12986 -5.4712,-1.48777 -4.345,-0.61905 -4.9039,-0.40234 -11.4777,4.45028 -7.8652,5.80597 -10.4422,4.93113 -3.3463,-1.13601 3.8183,-3.26469 4.1502,-3.84811 2.5436,-4.47048 -3.5232,-1.36477 -25.4028,0.50801 -31.1776,2.66863 -5.2598,1.96794 -7.2558,3.45679 -6.1358,4.57679 0.2965,0.2965 6.0791,1.16489 12.8501,1.92974 12.827,1.44892 26.2328,3.99718 28.8111,5.47658 2.2478,1.28978 3.2483,1.06533 6.0824,-1.36445 z m 61.4219,-33.7211 c 0.3424,-0.55389 -0.1005,-1.28448 -0.9841,-1.62354 -1.9146,-0.73472 -2.9817,0.0749 -2.0613,1.56407 0.8303,1.34358 2.2349,1.37101 3.0454,0.0595 z m -27.2399,-7.59071 c 0.9014,-0.90143 -0.3398,-3.47368 -1.3692,-2.83747 -0.4924,0.3043 -0.8952,1.20172 -0.8952,1.99426 0,1.47259 1.1914,1.91624 2.2644,0.84321 z m -101.58201,-6.65223 11.81758,-3.25 25.00003,0.11449 c 13.75,0.063 27.6266,0.56349 30.837,1.11226 5.476,0.93606 6.017,0.8462 8.75,-1.45339 5.8356,-4.9104 4.7085,-5.27336 -16.375,-5.27336 -19.0568,0 -35.3703,1.44356 -49.21203,4.3547 -3.85,0.80972 -10.6,2.00539 -15,2.65706 -7.97342,1.1809 -10.97006,2.41866 -9.92997,4.10155 0.78519,1.27047 1.07703,1.2216 14.11239,-2.36331 z m 91.81031,-2.07604 c 1.3111,-5.43296 3.3856,-5.68793 15.0908,-1.8548 12.4452,4.07542 14.7069,4.552 14.1859,2.98923 -0.8021,-2.40649 -13.2385,-5.7537 -25.309,-6.81186 -6.4677,-0.56699 -11.9654,-0.82485 -12.2173,-0.57304 -0.2518,0.25182 0.9888,2.98625 2.7569,6.07651 1.768,3.09026 3.5006,5.33275 3.85,4.98329 0.3495,-0.34945 1.0887,-2.51365 1.6427,-4.80933 z m 96.4655,-18.99173 c 2.452,-2.57523 4.615,-4.68223 4.8067,-4.68223 0.9049,0 -2.6319,4.01271 -5.7649,6.54053 -2.9364,2.36918 -2.7821,2.06993 0.9582,-1.8583 z"
           style="fill:#d61720"
           sodipodi:nodetypes="ssssssssssssscssssssssssssssssscsssssssssscssssscccsssssscsssssssssssssssccscssccsssssccssscssscssssscccccscssscsscssssssscscccsssss" />
        <path
           inkscape:connector-curvature="0"
           id="path5361"
           d="m 1003.4899,978.51335 c -7.88134,-0.77496 -16.1607,-2.59674 -26.00003,-5.721 -9.649,-3.06383 -10.47385,-3.15923 -23.5,-2.71787 -27.66638,0.93739 -44.11434,0.51102 -52.95951,-1.37284 -23.95442,-5.10186 -41.99203,-14.22465 -71.04049,-35.92979 -15.45168,-11.54557 -31.21988,-26.33946 -37.64029,-35.3145 -8.98632,-12.56193 -15.79707,-32.21499 -20.44887,-59.00716 -3.32061,-19.12511 -3.13694,-43.08354 0.46733,-60.96211 4.82373,-23.92748 16.20893,-61.94612 24.2103,-80.84548 4.15652,-9.81777 13.32704,-24.217 18.57786,-29.17031 14.99962,-14.14972 43.98288,-28.05162 69.83367,-33.49592 13.19436,-2.77879 28.10568,-2.61083 50.83702,0.57264 24.30123,3.40333 27.90708,3.38209 30.88766,-0.18194 l 2.29981,-2.75 -0.58664,2.61446 c -0.40694,1.81365 -0.12335,2.79225 0.92588,3.19487 2.00575,0.76968 15.50676,-0.68988 29.13627,-3.14984 20.33573,-3.67035 33.01743,-4.43545 64.33973,-3.88166 25.6303,0.45315 30.7838,0.80815 37.9294,2.61273 4.548,1.14858 10.0426,2.99308 12.2102,4.09888 5.0934,2.59846 5.856,2.54248 9.216,-0.67653 1.5426,-1.4779 2.8047,-2.22265 2.8047,-1.65499 0,0.56766 -0.9,1.84659 -2,2.84208 -2.6777,2.42328 -2.5427,3.1661 1.1475,6.31456 5.6547,4.82455 6.9019,5.19694 10.8274,3.23291 1.9388,-0.97002 4.8751,-2.03436 6.5251,-2.36521 2.6079,-0.52293 2.4773,-0.35254 -1,1.30387 -2.2,1.04798 -4.7875,2.11269 -5.75,2.36602 -0.9625,0.25334 -1.75,1.1259 -1.75,1.93904 0,0.81314 4.3875,7.34048 9.75,14.5052 23.0586,30.80815 38.2464,61.01739 45.0987,89.70361 2.4412,10.21974 2.6223,12.56053 2.5528,33 -0.059,17.23829 -0.5419,25.0436 -2.2333,36.06202 -6.5644,42.76328 -22.545,76.08275 -47.4784,98.99198 -28.4162,26.10932 -67.137,46.52044 -101.1898,53.34087 -9.9024,1.98333 -28.2814,3.26038 -36,2.50141 z m 28.5,-8.83062 c 45.5422,-6.57206 93.0996,-33.61523 118.4596,-67.36125 15.6019,-20.76126 27.7119,-52.53097 32.645,-85.64239 1.734,-11.6385 1.9956,-16.81954 1.5181,-30.06202 -0.9082,-25.18559 -3.2916,-34.34689 -15.8694,-61 -16.5048,-34.97438 -26.5794,-51.26968 -40.2533,-65.10852 -7.4836,-7.57385 -9.6555,-9.20986 -12.8906,-9.70995 -2.1398,-0.33078 -4.7491,-0.14196 -5.7984,0.41959 -1.4138,0.75668 -3.4648,0.48216 -7.922,-1.06036 -6.4178,-2.221 -7.889,-2.03956 -7.889,0.97294 0,1.99842 0.9576,2.27709 12,3.49177 6.1414,0.67556 13,4.64487 13,7.52354 0,2.42558 -2.3648,3.1082 -8.3775,2.41826 l -5.1225,-0.58779 2.7365,2.32026 c 1.505,1.27614 3.98,3.29221 5.5,4.48015 l 2.7635,2.15988 -2.25,2.40457 c -2.2167,2.3689 -2.9663,4.76243 -1.5,4.78951 1.5897,0.0294 13.3924,10.93528 22.3641,20.66492 11.9717,12.98308 14.2465,15.98033 12.8045,16.87151 -1.449,0.89552 -12.3026,-9.75704 -15.589,-15.30028 -1.3858,-2.3375 -2.9921,-4.25 -3.5695,-4.25 -0.5775,0 -5.2722,-4.3195 -10.4329,-9.59889 -10.1615,-10.39548 -8.7801,-9.74363 -22.8272,-10.77172 -3.7422,-0.27388 -5.2474,-0.12507 -4,0.39545 1.1,0.45903 4.7,0.87236 8,0.91853 3.3,0.0462 6.9,0.367 8,0.71296 2.592,0.81523 15.5,14.76641 15.5,16.75273 0,0.83631 -0.9264,2.01637 -2.0587,2.62235 -1.7002,0.9099 -2.8812,0.57395 -6.782,-1.92914 -10.9393,-7.01978 -24.6696,-11.88545 -39.148,-13.87306 -4.1429,-0.56875 -5.5742,-1.19782 -5.8376,-2.56575 -0.6996,-3.63278 5.6868,-7.4696 8.2188,-4.93765 0.3992,0.3992 3.2576,0.76707 6.352,0.81748 5.5631,0.0906 5.5877,0.0784 2.1909,-1.09387 -2.0861,-0.71989 -4.0989,-0.84353 -5.1247,-0.31478 -1.0216,0.52659 -1.9343,0.47444 -2.3091,-0.13194 -1.35,-2.18443 -6.2984,-1.03294 -8.9127,2.07403 -1.4239,1.69219 -2.5889,3.42648 -2.5889,3.85397 0,0.42749 -1.0125,1.95131 -2.25,3.38626 -1.2375,1.43495 -4.2551,5.10066 -6.7057,8.14602 -4.1745,5.18753 -7.0443,6.98797 -7.0443,4.41937 0,-0.6147 1.6875,-2.8062 3.75,-4.86999 2.0625,-2.06379 5.7221,-7.20126 8.1324,-11.4166 4.3215,-7.55775 4.852,-10.47537 1.3241,-7.28267 -0.9931,0.89879 -4.9334,3.27575 -8.7561,5.28213 -3.8227,2.00638 -9.242,5.39325 -12.0428,7.52637 -5.0283,3.82962 -7.4076,4.77281 -7.4076,2.93647 0,-0.51807 4.4148,-4.32598 9.8107,-8.46202 11.3927,-8.73276 13.4531,-11.54202 10.6981,-14.58632 -2.297,-2.53816 -3.6961,-2.54074 -5.2768,-0.01 -1.1345,1.81674 -5.9146,3.00821 -5.0149,1.25 0.2111,-0.4125 1.5661,-3.27689 3.0112,-6.36532 1.445,-3.08842 3.2698,-5.86185 4.055,-6.16318 0.7853,-0.30132 2.7877,-2.94943 4.4499,-5.88468 1.6622,-2.93525 3.9772,-6.19406 5.1445,-7.24181 4.7165,-4.23361 3.3679,-4.59519 -17.1277,-4.59219 -21.118,0.003 -30.8026,0.88444 -49.9441,4.54514 -6.98173,1.33523 -15.98173,2.68668 -20,3.00323 -11.44763,0.90184 -11.59932,0.96782 -12.84289,5.58607 -0.60975,2.26443 -0.73837,4.41113 -0.28584,4.77044 0.45254,0.35931 7.3478,0.38536 15.3228,0.0579 l 14.5,-0.59541 -14.25,-0.18508 c -13.67477,-0.17736 -14.25,-0.26822 -14.25,-2.25057 0,-5.20424 5.14626,-8.30696 6.32185,-3.81149 0.50029,1.9131 1.01131,2.05436 5.17372,1.43016 2.54024,-0.38093 8.30542,-1.83605 12.81152,-3.23361 7.01181,-2.1747 10.57156,-2.59969 24.69294,-2.94807 14.2061,-0.35046 42.7558,1.06027 43.8701,2.16777 0.6899,0.68578 -0.8654,5.31342 -2.2519,6.69989 -0.8303,0.8303 -3.2165,1.31671 -5.9985,1.22278 -5.1037,-0.17234 -5.906,1.06431 -2.6197,4.03831 1.1,0.99549 2,2.50631 2,3.35738 0,1.76004 -5.8419,8.14262 -7.4529,8.14262 -0.5833,0 -5.4538,2.475 -10.8233,5.5 -5.3696,3.025 -10.6831,5.5 -11.808,5.5 -2.5007,0 -11.8703,3.81661 -13.873,5.651 -2.6165,2.39669 0.1679,3.31278 16.288,5.35884 20.0485,2.54466 27.6692,4.56616 27.6692,7.33966 0,1.11188 -0.9768,3.06133 -2.1706,4.33211 -1.1939,1.27078 -1.8595,2.62161 -1.4793,3.00184 0.3802,0.38024 1.9741,-0.84526 3.542,-2.72333 4.2997,-5.15034 7.8801,-4.71719 23.1079,2.79559 14.3835,7.09627 22.3722,12.10871 22.7117,14.25028 0.1303,0.82171 -2.0016,3.21439 -4.7374,5.31707 -5.8071,4.4631 -6.1124,6.18067 -2.1357,12.01346 6.4841,9.51055 8.2786,12.61297 12.5306,21.66348 5.3309,11.34703 8.6251,25.53571 8.6444,37.23255 0.017,10.14433 0.6495,12.76745 3.0795,12.76745 1.896,0 8.7094,-4.9583 20.9559,-15.25 7.3772,-6.19962 8.5252,-6.69033 9.3578,-4 4.0308,13.02427 5.5555,52.15497 3.2048,82.25 -0.8808,11.275 -1.8842,24.325 -2.2299,29 -0.3457,4.675 -1.2329,9.68607 -1.9717,11.13572 -2.468,4.84292 -16.4742,16.7457 -23.8817,20.29515 -26.2778,12.59166 -81.5989,17.17407 -116.2039,9.62552 -17.01169,-3.71083 -17.16742,-3.76625 -36.32443,-12.92648 -8.44654,-4.03885 -15.26258,-3.59409 -26.16525,1.70732 -11.57217,5.62695 -18.21173,5.73983 -33.62488,0.57165 -32.68186,-10.95853 -53.96417,-30.0692 -69.92,-62.78538 -10.81001,-22.16507 -14.52485,-31.07523 -19.43838,-46.6235 -6.36098,-20.12854 -8.83965,-34.87246 -8.84604,-52.61901 -0.009,-23.89709 3.07263,-37.35483 15.7708,-68.88099 3.54448,-8.8 7.0316,-17.575 7.74915,-19.5 1.13245,-3.03808 5.75032,-11.31209 9.7241,-17.42305 2.79342,-4.29579 8.3124,-9.82671 11.67716,-11.70243 1.96534,-1.09559 2.67334,-1.72133 1.57334,-1.39053 -4.03309,1.21288 -23.91222,13.12948 -28.20782,16.90926 -9.14463,8.04653 -21.53823,30.04957 -29.63167,52.60675 -6.21805,17.33029 -14.02101,49.88409 -16.61616,69.32236 -2.15516,16.14256 -0.77052,44.34123 2.97945,60.67764 3.58439,15.61504 11.64559,34.44405 18.62352,43.5 15.89208,20.62472 55.72619,49.69989 84.13656,61.4118 17.3441,7.14994 34.53558,9.88839 50.87794,8.1044 25.11703,-2.74186 27.31742,-2.61048 45.83818,2.7369 18.518,5.34658 33.29113,6.44024 51.50003,3.81256 z m 84.25,-288.24008 c -2.179,-1.51996 -3.1028,-4.32558 -1.4243,-4.32558 0.4541,0 1.8041,1.0415 3,2.31445 3.5192,3.74606 2.5976,4.92231 -1.5757,2.01113 z m -59.25,-1.12558 c 0,-1.44448 2.3628,-3.2 4.307,-3.2 1.328,0 1.7227,0.48019 1.3,1.58179 -0.3339,0.86998 -0.607,1.76998 -0.607,2 0,0.23001 -1.125,0.41821 -2.5,0.41821 -1.375,0 -2.5,-0.36 -2.5,-0.8 z m -32,-0.58254 c 0,-0.9574 12.8376,-8.61746 14.4421,-8.61746 3.0902,0 -0.053,2.7121 -6.9676,6.01218 -6.1008,2.91164 -7.4745,3.39045 -7.4745,2.60528 z m 9.0556,-1.36746 c 0.065,-0.87789 10.7527,-7.88041 13.5391,-8.87079 1.0479,-0.37248 2.8608,-1.53505 4.0286,-2.5835 1.9608,-1.76045 2.2477,-1.78184 3.75,-0.27956 2.1522,2.1522 2.0659,2.75754 -0.7966,5.58783 -5.8738,5.80772 -8.1597,6.89602 -14.4849,6.89602 -3.3505,0 -6.0668,-0.3375 -6.0362,-0.75 z m 38.3597,209.63792 c 2.317,-1.82256 2.6439,-2.73255 2.3849,-6.63857 l -0.3002,-4.5265 -9,-5.46992 c -20.9143,-12.71106 -49.5959,-25.91958 -68.75774,-31.66445 -19.92877,-5.97483 -27.80005,-7.09095 -49.74229,-7.05333 -26.03155,0.0446 -43.43911,2.92983 -65,10.77334 -20.27873,7.37709 -30,13.31609 -30,18.32787 0,2.5472 3.18029,6.36364 5.3029,6.36364 0.71659,0 5.10409,-1.84966 9.75,-4.11036 26.91165,-13.09521 53.30885,-18.24851 81.29605,-15.87073 7.78308,0.66125 14.41176,1.3566 14.7304,1.54523 0.31864,0.18863 3.63239,0.83068 7.3639,1.42679 22.0081,3.51581 60.76468,18.75277 84.22758,33.11362 10.8554,6.64425 13.414,7.18977 17.7445,3.78337 z m -13.4153,-3.17237 c -32.049,-19.40858 -68.99545,-33.10375 -100.30125,-37.17923 -31.83225,-4.14402 -59.29553,-0.0558 -88.10918,13.11604 -13.46569,6.15569 -15.93787,6.41074 -16.39596,1.69152 -0.25089,-2.58474 0.29223,-3.60547 3,-5.63815 9.7292,-7.30352 32.16049,-15.43942 54.19076,-19.65516 43.82936,-8.38724 79.8985,-2.31295 127.13173,21.40985 7.7089,3.87177 18.6284,9.73958 24.2655,13.03958 11.3858,6.66533 12.8894,8.77627 9.4998,13.33705 -2.8921,3.89126 -6.713,3.85631 -13.2814,-0.1215 z m -23.8865,-61.72954 c 7.4841,-1.40886 14.9464,-5.27415 21.1787,-10.97008 16.0302,-14.6507 15.33,-34.73003 -1.6544,-47.44095 -21.9826,-16.4516 -51.1011,-15.82059 -73.05284,1.58308 -9.37119,7.42961 -13.24395,15.16826 -12.27742,24.53302 1.09951,10.65331 9.13618,19.30641 23.39024,25.18431 16.74122,6.90352 30.90362,9.27773 42.41572,7.11062 z M 906.4639,803.0409 c 6.8327,-2.55644 14.77835,-10.00706 17.76262,-16.65599 4.23406,-9.43342 2.00501,-19.20303 -6.03962,-26.47087 -17.58466,-15.88668 -44.38956,-15.70293 -62.71746,0.42992 -11.76697,10.35771 -10.98244,25.59851 1.75283,34.0517 14.54114,9.65186 36.32786,13.4769 49.24163,8.64524 z m 73.30878,-98.15656 c 0.71392,-1.48954 1.7169,-6.38076 2.22883,-10.86937 1.34475,-11.79062 3.16406,-13.86636 13.98836,-15.96004 l 4.50003,-0.8704 -5.19627,0.41279 c -5.9834,0.47532 -10.76281,2.64045 -12.34192,5.59105 -0.60359,1.12783 -1.49375,5.89178 -1.97813,10.58655 -1.72436,16.71331 -7.43434,17.27889 -11.02608,1.09215 -0.70174,-3.1625 -1.49663,-5.75 -1.76642,-5.75 -0.26979,0 -2.61841,2.21933 -5.21915,4.93185 -5.86859,6.12083 -8.97393,6.8333 -22.47206,5.1558 -5.5,-0.68352 -13.30913,-1.66018 -17.35362,-2.17036 -4.65926,-0.58772 -9.58418,-0.56837 -13.44141,0.0528 -3.34828,0.53923 -6.29078,0.77742 -6.53888,0.52932 -1.89071,-1.89071 8.12664,-7.40823 21.83391,-12.02604 5.3352,-1.79736 9.5,-3.75737 9.5,-4.47083 0,-0.69872 -6.35355,-4.69763 -14.11901,-8.88648 -17.30897,-9.33679 -24.38099,-13.70942 -24.38099,-15.07476 0,-1.65613 3.61225,-1.22854 17.5,2.07151 7.15,1.69901 14.0125,3.32113 15.25,3.60472 2.12443,0.48685 2.25,0.20673 2.25,-5.01917 0,-6.35778 0.67362,-8.69836 2.5034,-8.69836 1.81026,0 6.75508,5.86693 10.05514,11.93023 1.53301,2.81664 3.11589,4.9971 3.51751,4.84547 1.45337,-0.54873 10.03901,-18.03347 9.51966,-19.38689 -0.3391,-0.88366 -1.90834,-1.33928 -4.31433,-1.25263 -2.6153,0.0942 -3.01044,0.2635 -1.28138,0.54904 5.17203,0.85411 5.17786,0.92677 0.7841,9.78606 -2.3264,4.6908 -4.50801,8.52872 -4.84803,8.52872 -0.34002,0 -1.84105,-2.24675 -3.33562,-4.99277 -3.90948,-7.18301 -7.40903,-11.00723 -10.07271,-11.00723 -2.67528,0 -3.49383,2.17033 -3.51409,9.31739 -0.0117,4.12385 -0.26559,4.73964 -1.76365,4.27735 -5.19407,-1.60283 -27.23362,-6.5931 -30.14119,-6.82466 -4.31157,-0.34338 -5.05562,1.53005 -1.77968,4.48103 1.37309,1.23689 10.05145,6.34596 19.28524,11.35349 9.23378,5.00753 16.94261,9.56633 17.13072,10.13066 0.18811,0.56434 -0.91508,1.33866 -2.45154,1.72071 -6.9914,1.7385 -23.15183,8.79871 -26.54355,11.59641 -4.56882,3.76864 -5.05396,6.47064 -1,5.56946 11.09495,-2.46638 13.44453,-2.64971 20.92666,-1.63287 30.49661,4.14458 32.25461,4.02623 39.39428,-2.6521 l 4.84257,-4.52965 0.63306,2.84639 c 2.00062,8.99531 5.35636,14.70432 8.30894,14.1357 0.89609,-0.17257 2.21338,-1.53249 2.9273,-3.02204 z M 1015.063,675.5437 c 9.116,-1.72927 15.3224,-4.40903 16.3374,-7.05408 0.8532,-2.22348 -0.9636,-3.28658 -4.8247,-2.82313 -10.9912,1.31927 -13.9558,1.28634 -17.6611,-0.1962 -2.1586,-0.86371 -3.9247,-1.91172 -3.9247,-2.32891 0,-0.4172 1.8,-1.94972 4,-3.40561 2.2,-1.45589 4,-3.03821 4,-3.51626 0,-0.47805 0.8977,-1.10394 1.9949,-1.39087 2.1003,-0.54923 3.7164,-3.3336 2.5891,-4.46084 -0.3646,-0.36466 -2.2002,0.16484 -4.0791,1.17666 -2.0133,1.08427 -6.8219,2.13647 -11.7105,2.56244 l -8.29443,0.72276 8.75003,0.1437 c 5.306,0.0871 8.75,0.55356 8.75,1.18501 0,0.57272 -2.2974,2.46943 -5.1053,4.21492 -2.8079,1.74548 -4.4954,3.3372 -3.75,3.53716 0.7454,0.19996 3.4404,1.21821 5.9888,2.26277 3.8128,1.56284 6.071,1.78836 12.75,1.27331 7.0776,-0.54578 8.1165,-0.41821 8.1165,0.99664 0,0.8924 -1.3166,2.30336 -2.9257,3.13547 -2.5048,1.29527 -6.4938,2.13471 -23.0743,4.85579 -2.1196,0.34784 -2.0223,0.431 0.6395,0.54646 1.7267,0.0749 6.8719,-0.57184 11.4336,-1.43719 z m 47.6713,-16.62947 c 0.6905,-0.57313 1.2556,-1.52296 1.2556,-2.11073 0,-0.58778 -0.5625,-0.35312 -1.25,0.52147 -1.5724,2.00029 -5.75,3.3357 -5.75,1.83805 0,-0.59886 1.2252,-2.94026 2.7227,-5.20313 l 2.7227,-4.11429 1.2322,2.88573 c 1.2888,3.01839 1.7304,1.51003 0.6921,-2.36426 -0.8768,-3.27185 -1.7951,-2.82061 -5.2655,2.58755 -4.009,6.24753 -4.1207,8.63438 -0.3598,7.69046 1.5094,-0.37884 3.3094,-1.15772 4,-1.73085 z m 51.7599,1.19578 c 0.3424,-0.55389 -0.1005,-1.28448 -0.9841,-1.62354 -1.9146,-0.73472 -2.9817,0.0749 -2.0613,1.56407 0.8303,1.34358 2.2349,1.37101 3.0454,0.0595 z m -27.2399,-7.59071 c 0.9014,-0.90143 -0.3398,-3.47368 -1.3692,-2.83747 -0.4924,0.3043 -0.8952,1.20172 -0.8952,1.99426 0,1.47259 1.1914,1.91624 2.2644,0.84321 z m -229.26443,-3.40223 c 0.825,-0.53316 1.05,-0.96937 0.5,-0.96937 -0.55,0 -1.675,0.43621 -2.5,0.96937 -0.825,0.53316 -1.05,0.96937 -0.5,0.96937 0.55,0 1.675,-0.43621 2.5,-0.96937 z m 219.49273,-5.32604 c 1.3111,-5.43296 3.3856,-5.68793 15.0908,-1.8548 12.4452,4.07542 14.7069,4.552 14.1859,2.98923 -0.8021,-2.40649 -13.2385,-5.7537 -25.309,-6.81186 -6.4677,-0.56699 -11.9654,-0.82485 -12.2173,-0.57304 -0.2518,0.25182 0.9888,2.98625 2.7569,6.07651 1.768,3.09026 3.5006,5.33275 3.85,4.98329 0.3495,-0.34945 1.0887,-2.51365 1.6427,-4.80933 z m -208.49273,1.82181 c 4.125,-1.35649 5.96806,-2.19696 4.0957,-1.86771 -3.7829,0.66521 -14.17015,4.19472 -12.5957,4.27993 0.55,0.0298 4.375,-1.05573 8.5,-2.41222 z m 73.5,-1.55314 c -5.06556,-1.04778 -9.15859,-1.00081 -5,0.0574 1.65,0.41985 4.35,0.76486 6,0.76669 2.52234,0.003 2.36313,-0.12842 -1,-0.82406 z m -62.77083,-1.5468 c -0.3323,-0.33229 -1.1948,-0.36781 -1.91667,-0.0789 -0.79773,0.31922 -0.56078,0.55618 0.60417,0.60416 1.05416,0.0434 1.64479,-0.19292 1.3125,-0.52522 z m 52.27083,-0.39583 c -1.375,-0.44035 -3.4,-0.80064 -4.5,-0.80064 -1.58367,0 -1.47958,0.16667 0.5,0.80064 1.375,0.44035 3.4,0.80064 4.5,0.80064 1.58367,0 1.47958,-0.16667 -0.5,-0.80064 z m -47.75,-0.66228 c -0.6875,-0.27741 -1.8125,-0.27741 -2.5,0 -0.6875,0.27741 -0.125,0.50439 1.25,0.50439 1.375,0 1.9375,-0.22698 1.25,-0.50439 z m 9.25,-1.33772 c 2.67601,-0.68093 2.73001,-0.76337 0.5,-0.76337 -1.375,0 -3.85,0.34352 -5.5,0.76337 -2.67601,0.68093 -2.73001,0.76337 -0.5,0.76337 1.375,0 3.85,-0.34352 5.5,-0.76337 z m 27.5,-0.051 c -2.475,-0.44039 -5.625,-0.77483 -7,-0.7432 -3.81694,0.0878 3.68456,1.52945 8,1.53743 3.1571,0.006 3.05913,-0.072 -1,-0.79423 z M 1173.9481,624.7993 c 2.452,-2.57523 4.615,-4.68223 4.8067,-4.68223 0.9049,0 -2.6319,4.01271 -5.7649,6.54053 -2.9364,2.36918 -2.7821,2.06993 0.9582,-1.8583 z"
           style="fill:#fa0001"
           sodipodi:nodetypes="ssssssssssssscssssssssssssssssscssssssssssscsssssccccccsssssscsssssscsscsccsssssscsssssccccscssssssccssssscssssssscsscsssccsscssscscssssssscsssssssssssssscsccsscsssssssccsssscsccsssssssssssssssssssscssssssssssssssssscsssssssssssssssssssscssssssssssssssssscsssscssssssccscssssssssssscsssscccssccccccscssssssssscscccssscscsccccccccsssssssssssssssscsssss" />
        <path
           inkscape:connector-curvature="0"
           id="path5359"
           d="m 1003.4899,978.51335 c -7.88134,-0.77496 -16.1607,-2.59674 -26.00003,-5.721 -9.649,-3.06383 -10.47385,-3.15923 -23.5,-2.71787 -27.66638,0.93739 -44.11434,0.51102 -52.95951,-1.37284 -23.95442,-5.10186 -41.99203,-14.22465 -71.04049,-35.92979 -15.45168,-11.54557 -31.21988,-26.33946 -37.64029,-35.3145 -8.98632,-12.56193 -15.79707,-32.21499 -20.44887,-59.00716 -3.32061,-19.12511 -3.13694,-43.08354 0.46733,-60.96211 4.82373,-23.92748 16.20893,-61.94612 24.2103,-80.84548 4.15652,-9.81777 13.32704,-24.217 18.57786,-29.17031 14.99962,-14.14972 43.98288,-28.05162 69.83367,-33.49592 13.19436,-2.77879 28.10568,-2.61083 50.83702,0.57264 24.30123,3.40333 27.90708,3.38209 30.88766,-0.18194 l 2.29981,-2.75 -0.58664,2.61446 c -0.40694,1.81365 -0.12335,2.79225 0.92588,3.19487 2.00575,0.76968 15.50676,-0.68988 29.13627,-3.14984 20.33573,-3.67035 33.01743,-4.43545 64.33973,-3.88166 25.6303,0.45315 30.7838,0.80815 37.9294,2.61273 4.548,1.14858 10.0426,2.99308 12.2102,4.09888 5.0934,2.59846 5.856,2.54248 9.216,-0.67653 1.5426,-1.4779 2.8047,-2.22265 2.8047,-1.65499 0,0.56766 -0.9,1.84659 -2,2.84208 -2.6777,2.42328 -2.5427,3.1661 1.1475,6.31456 5.6547,4.82455 6.9019,5.19694 10.8274,3.23291 1.9388,-0.97002 4.8751,-2.03436 6.5251,-2.36521 2.6079,-0.52293 2.4773,-0.35254 -1,1.30387 -2.2,1.04798 -4.7875,2.11269 -5.75,2.36602 -0.9625,0.25334 -1.75,1.1259 -1.75,1.93904 0,0.81314 4.3875,7.34048 9.75,14.5052 23.0586,30.80815 38.2464,61.01739 45.0987,89.70361 2.4412,10.21974 2.6223,12.56053 2.5528,33 -0.059,17.23829 -0.5419,25.0436 -2.2333,36.06202 -6.5644,42.76328 -22.545,76.08275 -47.4784,98.99198 -28.4162,26.10932 -67.137,46.52044 -101.1898,53.34087 -9.9024,1.98333 -28.2814,3.26038 -36,2.50141 z m 28.5,-8.83062 c 45.5422,-6.57206 93.0996,-33.61523 118.4596,-67.36125 15.6019,-20.76126 27.7119,-52.53097 32.645,-85.64239 1.734,-11.6385 1.9956,-16.81954 1.5181,-30.06202 -0.9082,-25.18559 -3.2916,-34.34689 -15.8694,-61 -16.5048,-34.97438 -26.5794,-51.26968 -40.2533,-65.10852 -7.4836,-7.57385 -9.6555,-9.20986 -12.8906,-9.70995 -2.1398,-0.33078 -4.7491,-0.14196 -5.7984,0.41959 -1.4138,0.75668 -3.4648,0.48216 -7.922,-1.06036 -6.4178,-2.221 -7.889,-2.03956 -7.889,0.97294 0,1.99842 0.9576,2.27709 12,3.49177 6.1414,0.67556 13,4.64487 13,7.52354 0,2.42558 -2.3648,3.1082 -8.3775,2.41826 l -5.1225,-0.58779 2.7365,2.32026 c 1.505,1.27614 3.98,3.29221 5.5,4.48015 l 2.7635,2.15988 -2.25,2.40457 c -2.2167,2.3689 -2.9663,4.76243 -1.5,4.78951 1.5897,0.0294 13.3924,10.93528 22.3641,20.66492 11.9717,12.98308 14.2465,15.98033 12.8045,16.87151 -1.449,0.89552 -12.3026,-9.75704 -15.589,-15.30028 -1.3858,-2.3375 -2.9921,-4.25 -3.5695,-4.25 -0.5775,0 -5.3047,-4.35274 -10.5051,-9.67276 l -9.4551,-9.67275 -9.1499,-0.73517 c -5.0325,-0.40435 -10.9807,-1.40278 -13.2182,-2.21874 -2.6274,-0.95815 -4.6402,-1.16346 -5.6834,-0.5797 -1.004,0.56189 -1.8518,0.52083 -2.2408,-0.1085 -1.3553,-2.19294 -6.2994,-1.04858 -8.9187,2.06435 -1.4239,1.69219 -2.5889,3.42648 -2.5889,3.85397 0,0.42749 -1.0125,1.95131 -2.25,3.38626 -1.2375,1.43495 -4.2551,5.10066 -6.7057,8.14602 -4.1745,5.18753 -7.0443,6.98797 -7.0443,4.41937 0,-0.6147 1.6875,-2.8062 3.75,-4.86999 2.0625,-2.06379 5.7221,-7.20126 8.1324,-11.4166 4.3215,-7.55775 4.852,-10.47537 1.3241,-7.28267 -0.9931,0.89879 -4.9334,3.27575 -8.7561,5.28213 -3.8227,2.00638 -9.242,5.39325 -12.0428,7.52637 -5.0283,3.82962 -7.4076,4.77281 -7.4076,2.93647 0,-0.51807 4.4148,-4.32598 9.8107,-8.46202 11.3927,-8.73276 13.4531,-11.54202 10.6981,-14.58632 -2.297,-2.53816 -3.6961,-2.54074 -5.2768,-0.01 -1.1345,1.81674 -5.9146,3.00821 -5.0149,1.25 0.2111,-0.4125 1.5661,-3.27689 3.0112,-6.36532 1.445,-3.08842 3.2698,-5.86185 4.055,-6.16318 0.7853,-0.30132 2.7877,-2.94943 4.4499,-5.88468 1.6622,-2.93525 3.9772,-6.19406 5.1445,-7.24181 4.7165,-4.23361 3.3679,-4.59519 -17.1277,-4.59219 -21.118,0.003 -30.8026,0.88444 -49.9441,4.54514 -6.98173,1.33523 -15.98173,2.68668 -20,3.00323 -11.43869,0.90113 -11.60021,0.97109 -12.83582,5.55981 -0.60586,2.24999 -0.86247,4.32998 -0.57024,4.6222 0.29222,0.29222 11.3468,0.44452 24.56572,0.33843 16.95524,-0.1358 24.03444,0.13195 24.03444,0.90932 0,0.60607 -2.2974,2.53006 -5.1053,4.27555 -2.8079,1.74548 -4.4954,3.3372 -3.75,3.53716 0.7454,0.19996 3.4403,1.21821 5.9888,2.26277 3.8128,1.56284 6.071,1.78836 12.75,1.27331 7.0776,-0.54578 8.1165,-0.41821 8.1165,0.99664 0,3.31965 -6.7487,5.29746 -27.8053,8.14883 -11.94851,1.618 -16.43776,3.24214 -18.23289,6.59637 -0.60359,1.12783 -1.49375,5.89178 -1.97813,10.58655 -1.72436,16.71331 -7.43434,17.27889 -11.02608,1.09215 -0.70174,-3.1625 -1.49663,-5.75 -1.76642,-5.75 -0.26979,0 -2.61841,2.21933 -5.21915,4.93185 -5.86859,6.12083 -8.97393,6.8333 -22.47206,5.1558 -5.5,-0.68352 -13.30913,-1.66018 -17.35362,-2.17036 -4.65926,-0.58772 -9.58418,-0.56837 -13.44141,0.0528 -3.34828,0.53923 -6.29078,0.77742 -6.53888,0.52932 -1.89071,-1.89071 8.12664,-7.40823 21.83391,-12.02604 5.3352,-1.79736 9.5,-3.75737 9.5,-4.47083 0,-0.69872 -6.35355,-4.69763 -14.11901,-8.88648 -17.30897,-9.33679 -24.38099,-13.70942 -24.38099,-15.07476 0,-1.65613 3.61225,-1.22854 17.5,2.07151 7.15,1.69901 14.0125,3.32113 15.25,3.60472 2.12443,0.48685 2.25,0.20673 2.25,-5.01917 0,-6.35778 0.67362,-8.69836 2.5034,-8.69836 1.81026,0 6.75508,5.86693 10.05514,11.93023 1.53301,2.81664 3.11589,4.9971 3.51751,4.84547 1.35358,-0.51105 10.05718,-17.98612 9.5789,-19.23249 -0.28145,-0.73345 -3.45276,-1.49999 -7.81432,-1.88881 -4.03735,-0.35991 -11.39063,-1.57369 -16.34063,-2.69727 -5.75768,-1.30692 -14.40386,-2.24582 -24,-2.6062 -13.85448,-0.5203 -15.91641,-0.35626 -27,2.148 -16.73731,3.78169 -29.00588,8.39489 -41.80738,15.72032 -13.50337,7.72706 -18.4061,11.96453 -24.79185,21.42781 -14.67157,21.74231 -25.39694,51.21038 -33.79531,92.85294 -6.42922,31.87876 -5.42526,61.61534 3.03859,90 2.81134,9.4282 10.77215,25.85995 15.50327,32 15.89208,20.62472 55.72619,49.69989 84.13656,61.4118 17.3441,7.14994 34.53558,9.88839 50.87794,8.1044 25.11703,-2.74186 27.31742,-2.61048 45.83818,2.7369 18.518,5.34658 33.29113,6.44024 51.50003,3.81256 z m 21.7635,-79.61362 c -1.1161,0.79841 -1.7206,-13.17898 -6.9326,-13.56878 -4.5845,-0.34286 -8.49,6.26684 -11.7106,4.28251 -5.6145,-3.45932 -3.1628,-12.85836 -7.3721,-13.4912 -9.4212,-1.41641 -10.3449,9.46192 -18.036,5.91626 -9.94712,-4.58569 -9.98568,-17.73868 -16.34902,-18.89285 -13.12227,-2.38008 -6.25351,11.55396 -17.47668,8.64848 -8.41791,-2.17924 -9.31562,-14.28532 -17.18775,-15.31014 -2.83369,-0.3689 -10.3765,12.34715 -17.43381,12.12943 -6.63302,-0.20463 -12.71503,-13.42245 -17.76678,-11.4182 -6.63797,2.63357 -4.70627,12.40184 -9.44617,13.14055 -9.97845,1.55513 -8.9428,-8.55693 -15.2018,-5.41238 -7.41421,3.72494 0.87278,10.665 -6.94028,13.23187 -6.03513,1.98277 -15.2184,-11.34466 -21.32034,-8.55523 -2.80979,1.28446 7.42667,14.8796 -1.83847,12.51675 -7.66218,-1.95405 -14.19499,-7.09074 -14.55749,-10.82523 -0.2509,-2.58474 0.29223,-3.60547 3,-5.63815 9.7292,-7.30352 26.924,-13.34482 48.95427,-17.56056 43.82936,-8.38724 85.13499,-4.40755 132.36822,19.31525 7.7089,3.87177 18.6284,9.73958 24.2655,13.03958 11.3858,6.66533 12.8894,8.77627 9.4998,13.33705 -2.8921,3.89126 -10.9022,-0.33292 -18.5179,5.11499 z m -28.7635,-210.33458 c 0,-0.9574 12.8376,-8.61746 14.4421,-8.61746 3.0902,0 -0.053,2.7121 -6.9676,6.01218 -6.1008,2.91164 -7.4745,3.39045 -7.4745,2.60528 z m 35.4528,-19.59953 c 1.4207,-0.54013 3.0436,-2.19331 3.6064,-3.67372 1.0672,-2.8069 0.3807,-8.34421 -1.0344,-8.34421 -1.2019,0 -7.0248,9.3978 -7.0248,11.33755 0,1.9167 0.8567,2.04761 4.4528,0.68038 z m 54.0515,-0.025 c 0.3424,-0.55389 -0.1005,-1.28448 -0.9841,-1.62354 -1.9146,-0.73472 -2.9817,0.0749 -2.0613,1.56407 0.8303,1.34358 2.2349,1.37101 3.0454,0.0595 z m -27.2399,-7.59071 c 0.9014,-0.90143 -0.3398,-3.47368 -1.3692,-2.83747 -0.4924,0.3043 -0.8952,1.20172 -0.8952,1.99426 0,1.47259 1.1914,1.91624 2.2644,0.84321 z m -9.7717,-8.72827 c 1.3111,-5.43296 3.3856,-5.68793 15.0908,-1.8548 12.4452,4.07542 14.7069,4.552 14.1859,2.98923 -0.8021,-2.40649 -13.2385,-5.7537 -25.309,-6.81186 -6.4677,-0.56699 -11.9654,-0.82485 -12.2173,-0.57304 -0.2518,0.25182 0.9888,2.98625 2.7569,6.07651 1.768,3.09026 3.5006,5.33275 3.85,4.98329 0.3495,-0.34945 1.0887,-2.51365 1.6427,-4.80933 z m 96.4655,-18.99172 c 2.452,-2.57523 4.615,-4.68223 4.8067,-4.68223 0.9049,0 -2.6319,4.01271 -5.7649,6.54053 -2.9364,2.36918 -2.7821,2.06993 0.9582,-1.8583 z"
           style="fill:#1e0606;fill-opacity:1"
           sodipodi:nodetypes="ssssssssssssscssssssssssssssssscssssssssssscsssssccccccssssscsscccsssssscsssssccccscssssccssscsssssssssssssssssssssssssssssssssssssssssssssssssssssssscsssssscssscccccscsssscscccsssss" />
        <path
           inkscape:connector-curvature="0"
           id="path5357"
           d="m 1006.6542,978.48444 c -0.09,-0.0729 -3.3143,-0.39882 -7.16433,-0.72417 -3.85,-0.32534 -11.275,-1.92692 -16.5,-3.55904 -14.38372,-4.49303 -21.83848,-5.50473 -32.95084,-4.47179 -15.06957,1.40077 -37.39224,0.93372 -47.04916,-0.9844 -12.5388,-2.49054 -27.54466,-7.50694 -35.5,-11.86752 -1.1,-0.60295 -4.475,-2.44502 -7.5,-4.09349 -12.44127,-6.77986 -42.0664,-28.69233 -52.84254,-39.08542 -12.16469,-11.73228 -19.57511,-22.30505 -25.28943,-36.08154 -1.15123,-2.77546 -7.35965,-27.20995 -9.52816,-37.5 -1.41931,-6.73494 -1.795,-13.27606 -1.80918,-31.5 -0.0157,-20.12701 0.26015,-24.26249 2.20803,-33.10698 2.45201,-11.13357 10.05428,-39.20353 13.37725,-49.39302 1.16587,-3.575 2.77683,-8.525 3.57991,-11 1.52869,-4.71125 5.9868,-16.01358 9.65102,-24.46755 3.7183,-8.57871 14.4924,-22.36738 22.29452,-28.53245 4.96632,-3.92428 9.12204,-6.78877 11.85858,-8.17398 1.65,-0.83522 5.06747,-2.63988 7.59438,-4.01036 7.88737,-4.27776 30.79451,-13.1113 37.4025,-14.4233 21.67679,-4.30387 34.60395,-4.64443 53.00312,-1.39633 10.14538,1.79102 21.1563,3.15246 26.77536,3.31062 5.28135,0.14867 5.98809,-0.0927 8.26225,-2.82204 l 2.48688,-2.98461 -0.58664,2.61446 c -0.39913,1.77881 -0.12283,2.79245 0.86443,3.1713 1.92859,0.74006 21.87091,-1.02091 24.98972,-2.20668 1.3491,-0.51292 8.69783,-1.75305 16.33043,-2.75583 11.0172,-1.44745 20.4733,-1.81499 45.8776,-1.78315 34.6679,0.0434 40.8155,0.72214 53.8784,5.94812 3.4532,1.38148 6.8231,2.51178 7.4887,2.51178 0.6657,0 3.5553,2.24953 6.4216,4.99896 2.8662,2.74944 5.7738,4.99944 6.4613,5 0.6875,5.7e-4 1.25,0.47862 1.25,1.06233 0,0.58372 3.9375,6.17128 8.75,12.41682 11.2325,14.57728 14.678,19.82996 24.9646,38.05829 12.236,21.68282 19.1321,40.1446 23.3321,62.4636 1.8899,10.04274 2.0893,13.65421 1.5736,28.5 -0.7035,20.25283 -1.928,30.48237 -5.7898,48.36838 -2.8653,13.27024 -3.6297,15.79553 -9.719,32.10849 -7.3216,19.61415 -23.4825,41.60363 -41.1398,55.97727 -3.0095,2.44978 -6.2707,5.25581 -7.2473,6.23562 -0.9765,0.97982 -4.3515,3.42277 -7.5,5.42878 -3.1484,2.00602 -5.9494,3.9254 -6.2244,4.26528 -1.0299,1.27289 -18.2218,11.2963 -26.7001,15.56699 -9.7462,4.90935 -27.2881,11.5081 -37.2999,14.03114 -3.575,0.90092 -8.3,2.13111 -10.5,2.73375 -3.1137,0.85292 -31.1012,2.7445 -31.8357,2.15167 z m 26.8357,-7.46463 c 35.2728,-4.44158 77.142,-25.51987 104.0431,-52.37861 13.4781,-13.45685 20.1249,-22.72108 27.9987,-39.02413 13.4898,-27.93122 20.462,-57.84052 20.4542,-87.74342 -0.01,-28.53665 -3.7726,-42.30926 -21.1641,-77.41836 -12.7039,-25.64598 -23.1411,-42.1178 -34.1942,-53.96502 -9.4605,-10.14015 -15.1073,-13.19841 -20.8625,-11.299 -3.2901,1.08581 -4.3373,1.0282 -7.3403,-0.40385 -1.9265,-0.91869 -4.8375,-1.67035 -6.4689,-1.67035 -1.6313,0 -2.966,-0.50109 -2.966,-1.11354 0,-0.77429 1.4471,-0.86931 4.75,-0.31188 13.4082,2.26295 16.0489,-0.37226 4.7296,-4.71989 -10.65,-4.09058 -20.8935,-5.09057 -52.4796,-5.12316 -28.7732,-0.0297 -35.968,0.57407 -55.53786,4.6605 -3.8292,0.79958 -11.68717,1.97415 -17.46217,2.61015 -13.98906,1.54061 -14.58784,1.83099 -15.84347,7.6832 -0.56816,2.64804 -0.65304,5.19988 -0.18863,5.67076 0.46441,0.47088 11.01162,0.78626 23.43824,0.70085 12.42662,-0.0854 22.59389,0.0842 22.59389,0.37701 0,1.30309 -10.20647,5.5245 -14.84467,6.13978 -6.18632,0.82064 -9.25036,2.68815 -7.43357,4.53069 0.97119,0.98496 2.45515,0.89621 7.2349,-0.43268 7.28737,-2.02606 12.69824,-2.084 16.04334,-0.17179 1.5191,0.86843 5.3676,1.44303 9.809,1.46456 13.5397,0.0657 5.5224,3.05849 -14.9989,5.59908 -6.59398,0.81635 -13.51393,2.12141 -15.37769,2.90014 -4.82085,2.01428 -7.04513,6.30636 -7.84553,15.13912 -0.37451,4.13279 -1.12121,8.67221 -1.65934,10.08761 -0.93312,2.45429 -1.06615,2.49405 -2.87309,0.8588 -1.64923,-1.49254 -2.61375,-4.47082 -4.63082,-14.29931 -0.70084,-3.41494 -2.93277,-2.71818 -7.04268,2.1986 -2.04521,2.44672 -5.10511,5.02702 -6.79977,5.73399 -3.59607,1.50017 -15.01244,1.3811 -21.7448,-0.2268 -2.56497,-0.61259 -9.53997,-1.41691 -15.5,-1.78737 l -10.83641,-0.67356 2.89598,-1.95809 c 1.5928,-1.07695 7.8928,-3.60707 14,-5.62247 7.24804,-2.39189 11.21279,-4.21045 11.41724,-5.23689 0.37748,-1.8951 -3.19854,-4.23197 -21.01369,-13.73208 -13.51173,-7.20527 -15.55893,-8.51926 -14.66529,-9.4129 0.57481,-0.57481 10.92379,1.50221 21.83249,4.38174 9.21451,2.43233 10.03327,1.93971 10.03327,-6.03661 0,-3.23266 0.38026,-5.87756 0.84501,-5.87756 1.38331,0 4.16865,3.5324 8.05247,10.21223 2.1926,3.77107 4.32828,6.28777 5.33584,6.28777 1.87066,0 12.19952,-19.92966 11.40369,-22.00356 -0.26362,-0.68697 -3.65301,-1.45791 -8.03988,-1.82874 -4.17128,-0.3526 -11.97457,-1.54026 -17.34064,-2.63923 -23.12202,-4.73541 -34.55808,-4.73492 -54.75649,0.002 -24.50913,5.74832 -44.10921,14.97579 -56.57224,26.63349 -13.30769,12.44779 -27.90941,43.64612 -36.89737,78.83566 -7.25109,28.38937 -9.36706,42.68621 -9.39816,63.5 -0.0531,35.52584 7.92255,64.63079 23.31221,85.07164 15.06254,20.00638 56.45987,50.07551 84.50428,61.38007 17.65865,7.11811 22.87089,8.04828 43.05128,7.68284 42.59378,-0.77132 39.66031,-0.94624 54.28892,3.23725 18.83012,5.38503 31.33471,6.22268 52.71111,3.53094 z m 22.9111,-296.97947 c 2.6252,-3.11992 3.413,-7.29593 1.5889,-8.42327 -1.789,-1.10563 -1.0658,-2.24092 2.5077,-3.93664 5.7201,-2.71437 7.6461,-10.30552 4.282,-16.87728 -1.0125,-1.97801 0.5317,-4.68608 2.6722,-4.68608 2.0494,0 3.711,4.80843 2.4657,7.13529 -1.6671,3.11498 -0.4169,4.86471 3.4759,4.86471 5.0467,0 8.4991,-1.61358 9.5896,-4.48207 0.5266,-1.38486 1.4185,-2.51793 1.9821,-2.51793 1.4039,0 1.2366,1.1359 -0.507,3.44113 -2.8606,3.78198 -1.3839,7.30166 2.5407,6.05603 1.3918,-0.44174 1.9911,-1.51459 1.9911,-3.56455 0,-1.9401 0.5076,-2.93261 1.5,-2.93261 0.9276,0 1.5,0.94054 1.5,2.46482 0,3.1483 1.9572,4.10745 10,4.90059 6.1761,0.60906 8.186,1.69253 9.2914,5.00879 0.1999,0.59982 1.5661,0.99104 3.036,0.86939 1.4699,-0.12165 2.6726,0.26475 2.6726,0.85867 0,0.69225 -2.2435,0.96449 -6.25,0.75845 -3.4375,-0.17678 -6.3625,0.007 -6.5,0.40894 -0.6015,1.75707 0.01,2.49402 4.3002,5.20769 5.7052,3.60623 6.0544,4.19704 3.8927,6.58567 -2.276,2.51497 -13.4159,2.65946 -21.9828,0.28514 -8.4539,-2.34301 -15.5686,-3.08199 -18.354,-1.90636 -2.0018,0.84486 -2.6361,0.6457 -3.872,-1.21571 -1.9506,-2.93769 -2.5476,-2.84187 -7.9379,1.27392 -5.6593,4.32119 -7.317,4.50179 -3.8851,0.42327 z m -4.2292,-14.42327 c 0.6265,-1.375 1.5169,-2.5 1.9786,-2.5 1.105,0 1.059,0.72135 -0.1957,3.06574 -1.5384,2.87448 -3.1215,2.37213 -1.7829,-0.56574 z"
           style="fill:#058e42"
           sodipodi:nodetypes="cssssssssssssssssssssscsssssssccssssssssccssssccsscsssssssssssssssssscssssssssssscssssssssssssscssssssscccsscssscssssssscsssccssccscssss" />
        <path
           inkscape:connector-curvature="0"
           id="path5355"
           d="m 991.48987,976.2654 c -4.4,-1.00365 -12.05,-3.06458 -17,-4.57984 -8.8216,-2.70041 -9.29733,-2.7383 -24,-1.91176 -32.08678,1.80385 -45.89021,0.58147 -65.23705,-5.77714 -16.99359,-5.58518 -33.96704,-15.49301 -58.59877,-34.20558 -30.6145,-23.25763 -41.33343,-38.04864 -49.05906,-67.69639 -6.45302,-24.76403 -7.06021,-29.36584 -7.05611,-53.47762 0.004,-21.01041 0.14489,-22.62974 3.14136,-36 5.72091,-25.52669 17.12551,-62.39763 23.90399,-77.28133 12.76372,-28.02563 32.01464,-43.47678 69.94568,-56.13971 23.24573,-7.76038 36.38494,-8.64896 65.62294,-4.43799 25.79117,3.71456 45.00331,3.74059 64.83702,0.0879 22.03233,-4.05765 37.95053,-5.10466 66.50003,-4.374 26.6914,0.68311 35.0221,1.79017 45.7413,6.07854 3.5286,1.41165 6.9322,2.56663 7.5636,2.56663 0.6314,0 3.507,2.25 6.3902,5 2.8832,2.75 5.8188,5 6.5235,5 0.7048,0 1.2814,0.4356 1.2814,0.968 0,0.53241 3.9754,6.26991 8.8344,12.75 31.21,41.62336 46.9613,77.69808 49.6804,113.782 0.821,10.89474 -0.9501,36.78568 -3.5913,52.5 -4.6893,27.9001 -14.9917,54.23234 -28.7568,73.5 -5.2757,7.38477 -19.4773,21.73592 -29.1667,29.47396 -25.5733,20.42296 -56.2633,35.84165 -85,42.7041 -14.4985,3.46229 -40.5665,4.19233 -52.50003,1.47027 z m 42.00003,-5.24559 c 35.2728,-4.44158 77.142,-25.51987 104.0431,-52.37861 13.4781,-13.45685 20.1249,-22.72108 27.9987,-39.02413 13.4898,-27.93122 20.462,-57.84052 20.4542,-87.74342 -0.01,-28.53665 -3.7726,-42.30926 -21.1641,-77.41836 -12.7039,-25.64598 -23.1411,-42.1178 -34.1942,-53.96502 -9.4605,-10.14015 -15.1073,-13.19841 -20.8625,-11.299 -3.2901,1.08581 -4.3373,1.0282 -7.3403,-0.40385 -1.9265,-0.91869 -4.8375,-1.67035 -6.4689,-1.67035 -1.6313,0 -2.966,-0.50109 -2.966,-1.11354 0,-0.77429 1.4471,-0.86931 4.75,-0.31188 13.4082,2.26295 16.0489,-0.37226 4.7296,-4.71989 -10.65,-4.09058 -20.8935,-5.09057 -52.4796,-5.12316 -28.7732,-0.0297 -35.968,0.57407 -55.53786,4.6605 -3.8292,0.79958 -11.68717,1.9811 -17.46217,2.62559 -5.775,0.6445 -12.14698,1.78433 -14.15995,2.53297 -2.98866,1.1115 -3.75154,1.12245 -4.15936,0.0597 -0.31636,-0.82443 -3.27934,-1.53646 -8.08356,-1.94257 -4.17128,-0.3526 -11.97457,-1.54026 -17.34064,-2.63923 -23.12202,-4.73541 -34.55808,-4.73492 -54.75649,0.002 -24.50913,5.74832 -44.10921,14.97579 -56.57224,26.63349 -13.30769,12.44779 -27.90941,43.64612 -36.89737,78.83566 -7.25109,28.38937 -9.36706,42.68621 -9.39816,63.5 -0.0531,35.52584 7.92255,64.63079 23.31221,85.07164 15.06254,20.00638 56.45987,50.07551 84.50428,61.38007 17.65865,7.11811 22.87089,8.04828 43.05128,7.68284 42.59378,-0.77132 39.66031,-0.94624 54.28892,3.23725 18.83012,5.38503 31.33471,6.22268 52.71111,3.53094 z M 1019.1116,805.3137 c -4.2724,-0.9111 -9.5914,-4.3295 -13.2883,-8.54 -3.6237,-4.12717 -3.6629,-4.40334 -1.0886,-7.67593 2.688,-3.41732 9.3411,-5.90906 15.9357,-5.96832 4.9305,-0.0443 5.7375,0.26634 8.3829,3.227 2.6016,2.91171 7.0636,-3.50665 2.4532,8.20769 -3.0644,7.7862 -5.3287,12.25647 -12.3949,10.74956 z M 880.32077,787.13924 c -2.44518,-1.55606 -5.05853,-3.57522 -5.80745,-4.48701 -2.17166,-2.64396 -0.61721,-6.22866 3.56066,-8.21118 9.65726,-4.58267 17.30101,-2.0795 17.30101,5.66572 0,4.04027 -1.38754,7.75281 -3.3997,9.09637 -2.32039,1.54936 -7.38646,0.65221 -11.65452,-2.0639 z m 67.4191,-88.68445 c 0.6875,-0.27741 1.8125,-0.27741 2.5,0 0.6875,0.27741 0.125,0.50439 -1.25,0.50439 -1.375,0 -1.9375,-0.22698 -1.25,-0.50439 z m -10,-1 c 0.6875,-0.27741 1.8125,-0.27741 2.5,0 0.6875,0.27741 0.125,0.50439 -1.25,0.50439 -1.375,0 -1.9375,-0.22698 -1.25,-0.50439 z m -11.9375,-2.02083 c 0.72187,-0.28887 1.58437,-0.25335 1.91667,0.0789 0.33229,0.33229 -0.25834,0.56864 -1.3125,0.52522 -1.16495,-0.048 -1.4019,-0.28494 -0.60417,-0.60416 z m 33.1875,0.30555 c 0,-0.20765 0.7875,-0.99515 1.75,-1.75 1.58606,-1.24387 1.62143,-1.2085 0.37756,0.37756 -1.30637,1.66575 -2.12756,2.19548 -2.12756,1.37244 z m -50,-1 c 0,-0.20765 0.76138,-0.99515 1.69196,-1.75 1.00127,-0.81219 1.39947,-0.88495 0.97546,-0.17823 -0.5051,0.84188 0.69214,1.305 4.05805,1.56975 4.75212,0.37378 4.74754,0.37639 -0.97547,0.55579 -3.1625,0.0991 -5.75,0.0103 -5.75,-0.19731 z m 70.19495,-3.12244 c 0.0204,-1.65 0.2445,-2.20394 0.49804,-1.23097 0.25354,0.97297 0.23687,2.32297 -0.0371,3 -0.27393,0.67703 -0.48137,-0.11903 -0.46099,-1.76903 z m -13.78996,-3.25 c 1.04774,-1.2375 2.62274,-2.21447 3.5,-2.17105 1.35378,0.067 1.36815,0.16236 0.095,0.63049 -0.825,0.30334 -2.4,1.28032 -3.5,2.17105 -1.98297,1.60572 -1.98378,1.60035 -0.095,-0.63049 z m -29.16832,-8.01031 c -1.16756,-2.49062 -1.13981,-2.5714 0.36607,-1.06552 0.89617,0.89617 1.46467,2.10889 1.26333,2.69493 -0.20134,0.58604 -0.93457,-0.1472 -1.6294,-1.62941 z m 120.17446,-6.31642 c 2.6252,-3.11992 3.413,-7.29593 1.5889,-8.42327 -1.789,-1.10563 -1.0658,-2.24092 2.5077,-3.93664 5.7201,-2.71437 7.6461,-10.30552 4.282,-16.87728 -1.0125,-1.97801 0.5317,-4.68608 2.6722,-4.68608 2.0494,0 3.711,4.80843 2.4657,7.13529 -1.6671,3.11498 -0.4169,4.86471 3.4759,4.86471 5.0467,0 8.4991,-1.61358 9.5896,-4.48207 0.5266,-1.38486 1.4185,-2.51793 1.9821,-2.51793 1.4039,0 1.2366,1.1359 -0.507,3.44113 -2.8606,3.78198 -1.3839,7.30166 2.5407,6.05603 1.3918,-0.44174 1.9911,-1.51459 1.9911,-3.56455 0,-1.9401 0.5076,-2.93261 1.5,-2.93261 0.9276,0 1.5,0.94054 1.5,2.46482 0,3.1483 1.9572,4.10745 10,4.90059 6.1761,0.60906 8.186,1.69253 9.2914,5.00879 0.1999,0.59982 1.5661,0.99104 3.036,0.86939 1.4699,-0.12165 2.6726,0.26475 2.6726,0.85867 0,0.69225 -2.2435,0.96449 -6.25,0.75845 -3.4375,-0.17678 -6.3625,0.007 -6.5,0.40894 -0.6015,1.75707 0.01,2.49402 4.3002,5.20769 5.7052,3.60623 6.0544,4.19704 3.8927,6.58567 -2.276,2.51497 -13.4159,2.65946 -21.9828,0.28514 -8.4539,-2.34301 -15.5686,-3.08199 -18.354,-1.90636 -2.0018,0.84486 -2.6361,0.6457 -3.872,-1.21571 -1.9506,-2.93769 -2.5476,-2.84187 -7.9379,1.27392 -5.6593,4.32119 -7.317,4.50179 -3.8851,0.42327 z m -55.5986,0.39362 c 0.7218,-0.28887 1.5843,-0.25335 1.9166,0.0789 0.3323,0.33229 -0.2583,0.56864 -1.3125,0.52522 -1.1649,-0.048 -1.4019,-0.28494 -0.6041,-0.60416 z m 7.9375,-0.97917 c 0.6875,-0.27741 1.8125,-0.27741 2.5,0 0.6875,0.27741 0.125,0.50439 -1.25,0.50439 -1.375,0 -1.9375,-0.22698 -1.25,-0.50439 z m 13.25,-3.33772 c 0,-0.55 0.7015,-1 1.559,-1 0.8575,0 1.2809,0.45 0.941,1 -0.3399,0.55 -1.0415,1 -1.5591,1 -0.5175,0 -0.9409,-0.45 -0.9409,-1 z m -7.25,-0.70573 c 1.2375,-0.23836 3.2625,-0.23836 4.5,0 1.2375,0.23835 0.225,0.43337 -2.25,0.43337 -2.475,0 -3.4875,-0.19502 -2.25,-0.43337 z m -69.09552,-1.04427 c -0.25494,-0.4125 0.57553,-0.75 1.84549,-0.75 1.26996,0 2.10043,0.3375 1.84549,0.75 -0.25494,0.4125 -1.08541,0.75 -1.84549,0.75 -0.76008,0 -1.59055,-0.3375 -1.84549,-0.75 z m 37.81842,-0.2938 c -0.73901,-1.19574 1.24307,-3.9562 2.84064,-3.9562 0.58778,0 0.23893,0.60673 -0.77522,1.3483 -1.01414,0.74156 -1.52359,1.86656 -1.13211,2.5 0.39149,0.63343 0.48679,1.1517 0.21179,1.1517 -0.275,0 -0.79029,-0.46971 -1.1451,-1.0438 z m 7.33957,-4.63931 c 0.72187,-0.28887 1.58438,-0.25335 1.91667,0.0789 0.33229,0.33229 -0.25834,0.56864 -1.3125,0.52522 -1.16495,-0.048 -1.4019,-0.28494 -0.60417,-0.60416 z m 61.36943,-3.81689 c 0.6265,-1.375 1.5169,-2.5 1.9786,-2.5 1.105,0 1.059,0.72135 -0.1957,3.06574 -1.5384,2.87448 -3.1215,2.37213 -1.7829,-0.56574 z m -150.51526,0.83333 c -1.22194,-1.22193 -0.68741,-2.33427 1.08333,-2.25438 1.05575,0.0476 1.25163,0.27987 0.49377,0.58541 -0.69093,0.27855 -1.00187,0.91803 -0.69098,1.42105 0.65657,1.06237 0.0875,1.22158 -0.88612,0.24792 z m 31.33333,-8.33333 c 0,-0.55 0.47656,-1 1.05902,-1 0.58246,0 0.7809,0.45 0.44098,1 -0.33992,0.55 -0.81648,1 -1.05902,1 -0.24254,0 -0.44098,-0.45 -0.44098,-1 z"
           style="fill:#2e1d19"
           sodipodi:nodetypes="cssssscssssssssssssssssscccsscssssssssssssssscsssssssccsscsssssssssssssssssscccccsssssssscscscccssssssssscsscssscssssssscsssccssccsccccccssssssssssssssssssssscsscccccssssccsccsssss" />
      </g>
    </g>
  </g>
</svg>
